<?xml version="1.0" encoding="UTF-8"?>
<svg id="Layer_2" data-name="Layer 2" xmlns="http://www.w3.org/2000/svg" viewBox="0 0 464.1 1035.38">
  <defs>
    <style>
      .cls-1 {
        fill: #000;
      }

      .cls-1, .cls-2 {
        stroke-width: 0px;
      }

      .cls-2 {
        fill: #ffe9a7;
      }
    </style>
  </defs>
  <g id="Layer_1-2" data-name="Layer 1">
    <g>
      <path class="cls-2" d="M0,1035.38V0c154.7,0,309.4,0,464.1,0v1035.38H0ZM142.01,301.73c1.68,3.2,1.57,6.36,1.14,9.53-.77,5.71-1.49,11.43-2.49,17.1-.37,2.11-1.22,4.23-2.3,6.09-3.91,6.74-8.01,13.36-12.04,20.03-7.64,12.65-13.51,26.34-22.48,38.22-2.93,3.88-5.44,8.2-8.89,11.54-3.01,2.91-4.3,5.94-3.61,9.78,1.31,7.3,2.82,14.57,4.37,21.83,1.93,9.06,4.11,18.07,5.93,27.15,1.66,8.28,3.01,16.63,4.48,24.95,1.04,5.87,2.25,11.72,3.05,17.63.67,4.99.81,10.05,1.29,15.07.39,4.1,2.8,5.86,6.89,4.96,4.92-1.08,9.76-2.78,14.73-3.34,3.98-.45,5.95-2.6,7.76-5.62,8.77-14.65,17.47-29.34,26.44-43.86,7.29-11.79,14.93-23.37,22.47-35.01.57-.89,1.5-1.76,2.46-2.15,3.47-1.42,6.95-2.95,10.57-3.86,5.33-1.33,10.78-2.24,16.21-3.15,1.75-.29,2.31-1.05,2.3-2.72-.06-10.2-.03-20.41-.11-30.61-.05-6.85-1.72-13.72.23-20.55.9-3.16,1.9-6.3,2.75-9.48,1.7-6.39,3.53-12.75,4.92-19.21,1.49-6.9,3.09-13.85,3.64-20.85,1.11-14.1-.25-28.12-3.43-41.91-3.51-15.25-9.5-29.35-19.74-41.38-1.46-1.72-3.29-3.24-5.2-4.46-8.88-5.67-17.98-11.01-26.77-16.82-14.24-9.43-28.29-19.16-42.43-28.73-7.74-5.24-15.33-10.73-24.09-14.32-1.96-.8-3.39-.79-5.03.54-4.62,3.78-9.33,7.45-13.96,11.21-15.84,12.88-31.63,25.83-45.29,41.1-1.47,1.64-2.76,3.73-3.32,5.82-1.58,5.93-2.49,12.03-4.13,17.94-2.25,8.13-5.21,16.06-7.37,24.21-5.11,19.22-9.93,38.52-14.85,57.8-2.09,8.16-4.1,16.35-6.22,24.5-1.95,7.46-4.1,14.86-5.98,22.34-1.1,4.34-2.56,8.77-2.59,13.16-.05,7.33.45,14.74,1.56,21.99,2.02,13.15,4.35,26.28,7.11,39.29,3.44,16.26,7.24,32.46,11.29,48.59,2.83,11.3,6.75,22.34,9.42,33.67,4.3,18.24,9.06,36.33,15.11,54.07.97,2.85,2.06,5.7,3.46,8.36,1.56,2.95,3,3.33,6.15,2.17,3.35-1.23,6.68-2.55,10.02-3.83,13.59-5.21,27.47-9.76,39.85-17.74,3.83-2.46,4.89-4.04,3.81-8.57-2.33-9.79-4.9-19.53-7.31-29.3-3.01-12.21-6.16-24.38-8.84-36.66-1.6-7.33-2.28-14.85-3.59-22.24-1.17-6.6-2.47-13.19-4-19.72-2.07-8.84-4.74-17.55-6.53-26.44-2.04-10.13-3.43-20.39-4.99-30.62-.55-3.58-1.34-7.23.69-10.71,5.14-8.8,9.82-17.89,15.44-26.37,7.6-11.48,15.89-22.49,23.89-33.71,2.72-3.81,5.79-7.42,8.09-11.46,5.06-8.89,12.14-16.14,18.51-23.96.37-.46.93-.77,1.55-1.28ZM212.01,675.3c-4.11,4.69-8.13,9.6-12.48,14.2-13,13.75-26.14,27.37-39.22,41.05-2.52,2.64-2.47,2.63.05,5.18,10.59,10.7,22.13,20.51,30.3,33.43,1.09,1.73,1.65,3.07.17,4.62-6.86,7.16-13.68,14.35-20.71,21.33-.76.76-3.15.82-4.17.2-4.61-2.83-9.27-5.69-13.4-9.14-8.73-7.3-17.18-14.96-25.67-22.55-1.41-1.26-2.56-1.27-3.83-.11-1.97,1.79-3.89,3.64-5.81,5.48-1.3,1.25-1.68,2.58-1,4.45,2.7,7.42,5.17,14.91,7.83,22.35,2.16,6.05,4.26,12.14,6.75,18.05,3.45,8.19,7.61,16.1,10.8,24.39,2.96,7.69,6.7,14.86,11.23,21.69,1.58,2.39,3.29,2.6,5.57,1.3,3.51-2,7.15-3.8,10.54-5.98,7.11-4.55,13.86-9.73,21.21-13.85,10.31-5.78,19.7-12.79,29.03-19.92,5.91-4.51,11.15-9.93,17.24-14.16,8.96-6.23,18.53-11.56,27.62-17.61,17.1-11.39,34.01-23.08,51.06-34.55,21.72-14.62,43.47-29.22,65.3-43.68,3.5-2.32,6.42-4.64,7.18-9.08.37-2.13,1.55-4.11,2.23-6.21.64-1.98,1.31-3.99,1.59-6.05,1.2-8.92-.33-17.61-2.58-26.19-1.61-6.13-2.7-12.57-5.46-18.17-2.92-5.94-6.94-11.62-11.53-16.39-8.79-9.12-17.84-18.13-27.68-26.08-21.57-17.43-41.78-36.3-61.51-55.72-10.59-10.42-21.29-20.54-34.31-27.92-2.38-1.35-4.47-3.2-6.74-4.77-4.27-2.94-8.51-5.95-12.89-8.72-2.61-1.65-4.54-1.24-6.56,1.08-1.63,1.87-3.14,3.85-4.63,5.83-9.23,12.25-18.62,24.39-27.6,36.83-7.36,10.19-14.46,20.59-21.21,31.19-4.77,7.49-8.82,15.45-13.11,23.24-2.46,4.47-2.26,5.47,1.27,9.19,3.09,3.26,6.33,6.38,9.28,9.77,7.24,8.31,14.24,16.82,21.53,25.08,7.95,9.02,16.12,17.84,24.34,26.91ZM301.97,82.16c-.61.47-.83.56-.87.7-.14.43-.23.89-.3,1.34-3.01,18.18-10.38,34.39-22.06,48.62-.81.98-2.13,1.74-3.36,2.14-8.88,2.94-18.12,3.84-27.38,4.56-.71.06-1.92-.73-2.19-1.4-3.54-8.86-7.09-17.72-10.38-26.68-5.97-16.28-11.39-32.78-17.76-48.9-3.87-9.79-8.75-19.23-13.79-28.5-6.52-11.98-16.18-20.51-29.08-25.69-13.27-5.32-26.73-6.88-40.44-3.43-8.85,2.23-17.44,5.65-25.96,9.01-9.9,3.9-18.3,10.43-27,16.4-4.91,3.37-9.71,6.73-12.69,12.31-5.83,10.89-6.52,21.69.6,31.96,3.07,4.42,7.68,7.81,11.77,11.46,13.6,12.16,28.27,22.84,43.86,32.33,9.32,5.67,17.98,12.45,27.31,18.1,16.45,9.96,34.36,16.87,52.21,23.83,10.9,4.25,22.22,7.08,33.79,8.56,18.24,2.34,36.17-.1,53.64-5.33,12.52-3.75,21.13-11.96,23.31-25.33,2.48-15.26.31-30.1-5.94-44.21-1.85-4.19-4.82-7.88-7.3-11.85ZM344.4,932.97c.09,0,.18-.02.27-.02-.38-3.37-.76-6.75-1.13-10.12-1.13-10.42-1.86-20.9-3.5-31.23-1.91-12.03-4.55-23.95-7-35.89-3.63-17.64-7.39-35.25-11.06-52.87-1.27-6.09-2.69-12.17-3.54-18.33-.59-4.2-.68-4.61-4.49-2.89-7.36,3.32-14.73,6.6-22,10.1-9.79,4.72-19.57,9.49-29.2,14.53-5.36,2.81-10.22,6.58-15.63,9.27-10.99,5.47-21.09,12.2-30.47,20.08-3.73,3.13-7.4,6.32-11.16,9.41-3.21,2.64-6.1,5.35-4.94,10.11.3,1.24.29,2.56.55,3.82,2.07,9.78,4.18,19.54,6.27,29.31,2.77,12.93,5.7,25.83,8.27,38.8,2.61,13.22,4.98,26.5,7.23,39.79,1.13,6.69,1.71,13.46,5.21,19.53,1.78,3.08,2.87,3.78,6.33,2.88,4.95-1.29,9.98-2.35,14.81-4,19.16-6.55,38.25-13.33,57.38-19.95,11.68-4.04,23.41-7.95,35.12-11.9,1.92-.65,2.73-1.94,2.71-3.96-.05-5.49-.02-10.98-.02-16.47ZM34.47,890.55l-.38.02c.5,11.85.77,23.71,1.59,35.54.52,7.48,1.1,15.09,4.39,22.04,1.73,3.65,2.94,7.89,7.36,9.44,5.44,1.91,11.04,2.27,16.77,1.77,5.46-.47,10.94-.7,16.41-.91,2.55-.1,5.02-.63,6.02-3.06,2.08-5.08,4.5-10.19,5.47-15.53,2.19-12.04,4.26-24.07,8.77-35.51,4.45-11.27,8.92-22.55,16.12-32.48,3.72-5.13,7.33-10.34,10.85-15.61.61-.92,1.03-2.52.66-3.46-3.11-7.75-6.17-15.54-9.73-23.09-9.03-19.13-16.2-38.79-18.68-59.96-.1-.85-1.25-2.02-2.13-2.27-4.5-1.28-9.02-2.7-13.64-3.32-5.25-.71-10.65-1.2-15.89-.72-6.36.57-12.6,2.48-18.95,3.36-3.23.45-4.98,2.13-6.1,4.78-.82,1.94-1.65,3.97-1.9,6.03-.81,6.84-1.27,13.72-2.06,20.56-.25,2.16.14,3.04,2.42,3.52,6.88,1.44,13.76,2.97,20.52,4.85,6.23,1.74,8.44,8.36,4.79,13.68-1.08,1.58-2.27,3.21-3.76,4.38-7.99,6.31-16.09,12.47-24.12,18.74-.78.61-1.7,1.53-1.82,2.41-.8,5.82-1.67,11.65-2.02,17.51-.53,9.09-.67,18.2-.97,27.29ZM410.46,1024.4c.01.09.03.18.04.27,5.24-.87,10.49-1.69,15.72-2.63,10.1-1.81,20.17-3.84,30.3-5.48,5.07-.82,7.36-2.9,6.41-7.99-1.08-5.83-2.66-11.6-4.46-17.26-.53-1.68-2.27-3.53-3.91-4.2-5.32-2.16-10.75-4.16-16.3-5.58-22.47-5.73-44.07-13.67-64.69-24.3-1.75-.91-3.51-1.19-5.27.52-1.07,1.04-2.64,1.64-4.08,2.22-18.98,7.65-37.86,15.54-56.98,22.81-20.86,7.93-41.81,15.7-64.15,18.54-2.59.33-3.05,1.22-2.18,3.58,2.41,6.55,5.07,13.05,6.83,19.77,1.42,5.43,6.62,7.66,11.23,7.25,3.9-.34,7.79-.82,11.7-.99,7.78-.34,15.57-.47,23.35-.78.72-.03,1.7-.51,2.06-1.09,1.92-3.11,3.6-6.36,5.5-9.48,2.91-4.78,5.87-9.53,8.92-14.22,1.64-2.53,2.68-2.44,4.43.06.37.53.79,1.02,1.18,1.53,5.39,7.19,10.76,14.39,16.2,21.54.37.49,1.21.8,1.86.86,14.16,1.2,28.26.55,42.35-1.15,11.3-1.36,22.62-2.56,33.93-3.83ZM130.07,631.58c.19-.15.39-.31.58-.46.53.33,1.05.69,1.61.99,5.73,3.08,11.33,6.43,17.23,9.13,4.3,1.98,8.83.32,10.94-3.15,2.48-4.07,1.8-8.52-1.83-11.97-1.13-1.08-2.28-2.13-3.41-3.21-3.65-3.49-6.99-7.39-11.01-10.39-8.56-6.38-18.13-11.09-27.98-15.14-1.5-.62-3.74-.71-5.17-.04-14.47,6.72-28.79,13.78-43.29,20.43-2.73,1.25-3.13,2.68-2.47,5.06,3.91,14.02,7.6,28.1,11.84,42.02,2.93,9.62,8.44,17.92,15.48,25.1,2.94,2.99,4.15,3.02,7.87,1.22,1.79,3.66,3.89,7.32,7.83,8.82,4.29,1.63,7.83-.32,10.39-3.99,4.03,3.53,8.28,4.81,12.98,2.6,4.93-2.33,5.52-7.11,5.94-11.83,6.24,1.04,10.11-.58,11.58-5.46.85-2.81,1.44-6.2.67-8.91-2.37-8.27-4.92-16.53-9.63-23.92-3.53-5.54-6.78-11.25-10.15-16.89ZM291.01,314.76c-.23,0-.46-.01-.69-.02,2.03-8.16-1.11-15.86-1.91-23.76-.05-.52-1.4-1.23-2.19-1.29-4.21-.32-8.45-.36-12.66-.68-7.6-.59-15.19-1.34-22.79-1.95-2.89-.23-4.71.95-4.98,3.15-.87,6.91-1.66,13.84-2.54,20.75-1.5,11.72-2.42,23.52-5.23,35.06-2.19,8.99-4.32,18-6.06,27.08-1.55,8.09-2.55,16.28-3.76,24.43-1.08,7.25-.48,14.46.58,21.67.36,2.48,1.69,2.85,3.79,2.79,2.29-.07,4.58.15,6.87.25,7.51.32,15.02.84,22.53.89,3.43.02,6.67-.68,9.2-3.91,5.2-6.63,7.37-14.29,8.67-22.32,1.08-6.7,1.82-13.46,2.87-20.16,1.57-9.98,3.52-19.9,4.86-29.91,1.43-10.65,2.33-21.36,3.46-32.05ZM197.22,4.23c.57.48,1.01.92,1.52,1.28,7.36,5.22,13.42,11.67,18.34,19.24,14.54,22.39,23.21,47.26,30.33,72.71,2.32,8.3,4.07,16.74,7.85,24.53,1.06,2.18,2.64,4.14,4.19,6.03.89,1.09,1.98,1.06,2.86-.41,1.6-2.68,3.38-5.25,5.04-7.89,7.62-12.19,14.04-24.93,17.48-39,.83-3.38,1.48-6.82,2.54-10.13,3.15-9.89,4.29-20.07,4.6-30.36.06-1.97-.36-4.07-1.04-5.94-2.18-6.08-5.66-11.33-10.76-15.38-4.02-3.2-7.96-6.54-12.21-9.43-5.14-3.49-10.88-5.69-17.18-4-5.02,1.35-10.02,3.02-14.75,5.16-3.04,1.38-4.99,1.13-7.58-.94-6.73-5.38-14.32-8.9-23.17-9.08-3.23-.06-5.9.93-8.07,3.59ZM102.84,121.53c-.96,5.63-2.7,10.35-.48,15.28.52,1.17.79,2.45,1.23,3.66,2.69,7.41,5.38,14.81,8.1,22.2,1.24,3.37,3.79,5.51,6.81,7.27,7.23,4.19,14.48,8.33,21.59,12.71,8.52,5.25,16.92,10.69,25.34,16.1,12.52,8.04,25.03,16.09,37.5,24.21,2.73,1.78,4.77,2.05,7.25-.05,1.59-1.34,3.27-2.89,4.12-4.72,2.27-4.89,4.43-9.89,6.03-15.03,1.75-5.61,3.02-11.32,6.67-16.17,2.68-3.57,1.69-5.36-2.55-6.69-6.28-1.97-12.5-4.17-18.62-6.6-7.32-2.91-14.55-6.06-21.74-9.29-9.69-4.36-19.57-8.42-28.89-13.5-12.07-6.58-23.59-14.18-35.5-21.07-5.21-3.01-10.81-5.36-16.86-8.32ZM180.76,771.14c-.67-1.09-1.14-2.32-1.99-3.16-5.21-5.17-10.48-10.29-15.79-15.37-10.75-10.28-21.51-20.55-32.34-30.74-3.87-3.64-7.96-7.05-12.01-10.49-.56-.48-1.52-.78-2.26-.72-8.78.75-15.09-4.23-21.43-9.15-2.1-1.63-4.06-3.46-6.27-4.92-13.48-8.89-22.62-20.98-27.26-36.48-.46-1.54-1.22-3.15-2.3-4.3-5.73-6.09-11.51-12.14-17.46-18.01-2.93-2.89-6.15-5.51-9.48-7.92-.88-.64-3.11-.63-3.91.04-4.49,3.79-7.94,8.39-9.43,14.24-1.28,5.02-.13,9.25,3.9,12.64,1.33,1.12,2.6,2.32,3.83,3.55,6.32,6.41,12.42,13.05,18.96,19.22,10.63,10.03,21.61,19.68,32.3,29.64,15.79,14.72,31.37,29.66,47.21,44.33,7.27,6.73,14.87,13.12,22.43,19.52,4.97,4.2,10.11,8.22,15.27,12.19,2.29,1.76,4.84,1.87,6.98-.33,3.25-3.35,6.43-6.77,9.51-10.28.74-.84.95-2.13,1.52-3.49ZM146.5,601.95c2.68-5.57,5.23-11.04,7.91-16.44,8.13-16.33,16.07-32.77,24.54-48.92,7.88-15.04,16.33-29.77,24.56-44.62,3.03-5.46,6.68-10.64,9.1-16.35,3.43-8.06,7.03-15.95,12.21-23.05,1.18-1.61.35-2.88-1.42-3.07-6.12-.66-12.24-1.22-18.38-1.61-1.2-.08-2.82.48-3.63,1.33-2.39,2.51-4.64,5.2-6.63,8.03-6.67,9.45-13.45,18.83-19.7,28.55-5.15,8.01-9.56,16.49-14.35,24.73-7.57,13.01-15.2,25.98-22.78,38.99-3.19,5.48-6.29,11-9.43,16.51-3.84,6.73-7.68,13.46-11.74,20.55,11.33,3.32,20.71,8.99,29.73,15.37ZM295.79,190.43c-.68-4.83-2.19-9.31-5.44-13.04-5.44-6.25-12.96-4.98-16.07,2.72-.56,1.4-1,2.72-2.9,2.82-.62.03-1.29.67-1.81,1.17-4.54,4.43-4.62,10.09-4.17,15.83.39,4.97,1.77,10.02-2.56,14.2-2.16,2.09-2.98,2.32-4.79-.02-1.27-1.64-2.13-3.59-3.34-5.29-1.3-1.83-2.85-3.42-5.45-2.92-2.33.45-2.45,2.47-2.89,4.2-.97,3.81-1.91,7.63-2.8,11.47-.53,2.32-1.04,4.66-1.37,7.02-1.69,11.97-2.09,23.96-.83,36.02.55,5.33,1.6,6.58,6.98,6.6,13.22.05,26.43,0,39.65.07,2.38.01,3.57-1.18,4.01-3.28,1.06-5.02,1.98-10.06,3.05-15.07,1.96-9.21,2.44-18.5,1.99-27.88-.33-6.78-.44-13.58-.78-20.36-.13-2.49.9-3.33,3.22-3.05.64.08,1.28.07,1.93.06,5.39-.08,10.78-.08,16.16-.33,1.01-.05,2.25-.92,2.91-1.78,2.49-3.24.3-7.4-4.17-7.77-6.75-.56-13.52-.92-20.53-1.39Z"/>
      <path class="cls-1" d="M142.01,301.73c-.62.51-1.17.82-1.55,1.28-6.38,7.82-13.46,15.08-18.51,23.96-2.3,4.05-5.38,7.65-8.09,11.46-8,11.21-16.29,22.23-23.89,33.71-5.61,8.48-10.3,17.57-15.44,26.37-2.03,3.48-1.24,7.12-.69,10.71,1.56,10.22,2.96,20.49,4.99,30.62,1.79,8.89,4.46,17.6,6.53,26.44,1.53,6.53,2.83,13.12,4,19.72,1.31,7.4,1.99,14.92,3.59,22.24,2.68,12.28,5.83,24.46,8.84,36.66,2.41,9.77,4.98,19.51,7.31,29.3,1.08,4.53.01,6.1-3.81,8.57-12.38,7.97-26.26,12.53-39.85,17.74-3.34,1.28-6.66,2.6-10.02,3.83-3.15,1.16-4.6.78-6.15-2.17-1.4-2.66-2.49-5.51-3.46-8.36-6.05-17.74-10.81-35.83-15.11-54.07-2.67-11.33-6.59-22.37-9.42-33.67-4.04-16.13-7.84-32.32-11.29-48.59-2.76-13.02-5.09-26.14-7.11-39.29-1.11-7.25-1.61-14.66-1.56-21.99.03-4.4,1.49-8.82,2.59-13.16,1.89-7.47,4.04-14.88,5.98-22.34,2.13-8.15,4.14-16.34,6.22-24.5,4.92-19.27,9.74-38.57,14.85-57.8,2.16-8.15,5.12-16.08,7.37-24.21,1.64-5.91,2.55-12.02,4.13-17.94.56-2.1,1.86-4.18,3.32-5.82,13.66-15.27,29.45-28.22,45.29-41.1,4.63-3.77,9.35-7.43,13.96-11.21,1.63-1.34,3.06-1.35,5.03-.54,8.75,3.58,16.34,9.07,24.09,14.32,14.15,9.58,28.19,19.3,42.43,28.73,8.78,5.82,17.88,11.15,26.77,16.82,1.91,1.22,3.73,2.74,5.2,4.46,10.24,12.03,16.23,26.13,19.74,41.38,3.18,13.79,4.54,27.81,3.43,41.91-.55,7.01-2.16,13.95-3.64,20.85-1.39,6.46-3.22,12.82-4.92,19.21-.85,3.18-1.85,6.32-2.75,9.48-1.95,6.83-.28,13.7-.23,20.55.08,10.2.05,20.41.11,30.61,0,1.66-.55,2.42-2.3,2.72-5.43.91-10.87,1.82-16.21,3.15-3.62.9-7.1,2.43-10.57,3.86-.96.39-1.88,1.26-2.46,2.15-7.54,11.64-15.18,23.22-22.47,35.01-8.98,14.52-17.67,29.21-26.44,43.86-1.81,3.02-3.78,5.17-7.76,5.62-4.97.57-9.81,2.27-14.73,3.34-4.09.9-6.5-.86-6.89-4.96-.48-5.02-.62-10.08-1.29-15.07-.8-5.91-2.01-11.76-3.05-17.63-1.47-8.32-2.82-16.67-4.48-24.95-1.83-9.08-4.01-18.09-5.93-27.15-1.55-7.26-3.05-14.53-4.37-21.83-.69-3.84.61-6.86,3.61-9.78,3.45-3.34,5.96-7.66,8.89-11.54,8.97-11.87,14.84-25.57,22.48-38.22,4.03-6.67,8.13-13.29,12.04-20.03,1.08-1.86,1.93-3.98,2.3-6.09,1-5.67,1.72-11.39,2.49-17.1.43-3.17.54-6.33-1.14-9.53Z"/>
      <path class="cls-1" d="M212.01,675.3c-8.21-9.06-16.38-17.89-24.34-26.91-7.29-8.26-14.29-16.77-21.53-25.08-2.95-3.38-6.19-6.51-9.28-9.77-3.53-3.72-3.73-4.72-1.27-9.19,4.29-7.8,8.33-15.75,13.11-23.24,6.75-10.6,13.85-21,21.21-31.19,8.98-12.44,18.37-24.57,27.6-36.83,1.49-1.98,3-3.96,4.63-5.83,2.02-2.31,3.94-2.73,6.56-1.08,4.38,2.77,8.62,5.78,12.89,8.72,2.27,1.56,4.36,3.42,6.74,4.77,13.02,7.38,23.72,17.49,34.31,27.92,19.72,19.41,39.94,38.29,61.51,55.72,9.84,7.95,18.88,16.96,27.68,26.08,4.6,4.77,8.61,10.45,11.53,16.39,2.75,5.6,3.85,12.04,5.46,18.17,2.25,8.58,3.78,17.27,2.58,26.19-.28,2.05-.95,4.06-1.59,6.05-.67,2.1-1.86,4.08-2.23,6.21-.76,4.44-3.68,6.76-7.18,9.08-21.83,14.46-43.58,29.06-65.3,43.68-17.05,11.48-33.95,23.16-51.06,34.55-9.09,6.05-18.66,11.39-27.62,17.61-6.09,4.23-11.33,9.65-17.24,14.16-9.33,7.13-18.72,14.14-29.03,19.92-7.35,4.12-14.1,9.3-21.21,13.85-3.4,2.17-7.03,3.98-10.54,5.98-2.28,1.3-3.99,1.08-5.57-1.3-4.53-6.84-8.27-14-11.23-21.69-3.19-8.29-7.34-16.19-10.8-24.39-2.49-5.92-4.59-12-6.75-18.05-2.65-7.43-5.13-14.93-7.83-22.35-.68-1.87-.3-3.2,1-4.45,1.92-1.85,3.84-3.69,5.81-5.48,1.27-1.16,2.43-1.15,3.83.11,8.49,7.59,16.93,15.24,25.67,22.55,4.13,3.46,8.79,6.32,13.4,9.14,1.02.62,3.41.56,4.17-.2,7.03-6.98,13.85-14.17,20.71-21.33,1.48-1.55.93-2.89-.17-4.62-8.17-12.92-19.71-22.73-30.3-33.43-2.53-2.55-2.57-2.55-.05-5.18,13.08-13.68,26.21-27.3,39.22-41.05,4.35-4.6,8.37-9.51,12.48-14.2Z"/>
      <path class="cls-1" d="M301.97,82.16c2.48,3.97,5.44,7.66,7.3,11.85,6.25,14.11,8.43,28.95,5.94,44.21-2.18,13.37-10.78,21.58-23.31,25.33-17.47,5.23-35.4,7.67-53.64,5.33-11.57-1.48-22.89-4.31-33.79-8.56-17.85-6.96-35.77-13.86-52.21-23.83-9.33-5.65-17.99-12.43-27.31-18.1-15.6-9.49-30.26-20.18-43.86-32.33-4.09-3.66-8.7-7.04-11.77-11.46-7.12-10.27-6.43-21.07-.6-31.96,2.99-5.58,7.78-8.94,12.69-12.31,8.7-5.96,17.11-12.5,27-16.4,8.52-3.36,17.11-6.78,25.96-9.01,13.71-3.45,27.17-1.89,40.44,3.43,12.9,5.17,22.55,13.71,29.08,25.69,5.04,9.26,9.92,18.7,13.79,28.5,6.37,16.12,11.79,32.62,17.76,48.9,3.28,8.96,6.83,17.82,10.38,26.68.27.68,1.48,1.46,2.19,1.4,9.25-.72,18.5-1.62,27.38-4.56,1.23-.41,2.56-1.16,3.36-2.14,11.68-14.23,19.05-30.44,22.06-48.62.07-.45.16-.9.3-1.34.04-.14.26-.22.87-.7Z"/>
      <path class="cls-1" d="M344.4,932.97c0,5.49-.04,10.98.02,16.47.02,2.02-.79,3.31-2.71,3.96-11.71,3.96-23.44,7.86-35.12,11.9-19.14,6.62-38.22,13.4-57.38,19.95-4.83,1.65-9.86,2.71-14.81,4-3.45.9-4.55.2-6.33-2.88-3.49-6.07-4.08-12.84-5.21-19.53-2.25-13.29-4.62-26.57-7.23-39.79-2.57-12.97-5.5-25.87-8.27-38.8-2.09-9.77-4.2-19.54-6.27-29.31-.27-1.26-.25-2.57-.55-3.82-1.15-4.77,1.74-7.48,4.94-10.11,3.76-3.09,7.44-6.28,11.16-9.41,9.37-7.88,19.48-14.61,30.47-20.08,5.41-2.69,10.27-6.46,15.63-9.27,9.63-5.04,19.41-9.81,29.2-14.53,7.27-3.5,14.65-6.78,22-10.1,3.81-1.72,3.91-1.31,4.49,2.89.86,6.16,2.27,12.24,3.54,18.33,3.67,17.63,7.43,35.24,11.06,52.87,2.46,11.94,5.09,23.86,7,35.89,1.64,10.34,2.36,20.82,3.5,31.23.37,3.38.75,6.75,1.13,10.12-.09,0-.18.02-.27.02Z"/>
      <path class="cls-1" d="M34.47,890.55c.3-9.1.43-18.21.97-27.29.34-5.86,1.21-11.69,2.02-17.51.12-.88,1.04-1.8,1.82-2.41,8.02-6.27,16.13-12.42,24.12-18.74,1.48-1.17,2.67-2.8,3.76-4.38,3.65-5.31,1.44-11.94-4.79-13.68-6.77-1.89-13.64-3.42-20.52-4.85-2.28-.48-2.68-1.36-2.42-3.52.8-6.84,1.25-13.72,2.06-20.56.24-2.06,1.08-4.09,1.9-6.03,1.12-2.65,2.87-4.34,6.1-4.78,6.35-.87,12.58-2.78,18.95-3.36,5.24-.47,10.65.02,15.89.72,4.61.62,9.14,2.04,13.64,3.32.88.25,2.03,1.42,2.13,2.27,2.48,21.17,9.65,40.83,18.68,59.96,3.56,7.55,6.62,15.34,9.73,23.09.37.93-.05,2.54-.66,3.46-3.52,5.27-7.13,10.48-10.85,15.61-7.2,9.93-11.66,21.2-16.12,32.48-4.52,11.44-6.58,23.47-8.77,35.51-.97,5.34-3.39,10.45-5.47,15.53-1,2.43-3.47,2.97-6.02,3.06-5.48.2-10.96.44-16.41.91-5.73.49-11.34.13-16.77-1.77-4.41-1.55-5.63-5.79-7.36-9.44-3.29-6.95-3.87-14.55-4.39-22.04-.82-11.83-1.09-23.69-1.59-35.54l.38-.02Z"/>
      <path class="cls-1" d="M410.46,1024.4c-11.31,1.27-22.63,2.47-33.93,3.83-14.09,1.69-28.19,2.35-42.35,1.15-.65-.06-1.49-.37-1.86-.86-5.44-7.15-10.81-14.36-16.2-21.54-.39-.51-.81-1-1.18-1.53-1.75-2.5-2.79-2.59-4.43-.06-3.05,4.69-6.01,9.44-8.92,14.22-1.9,3.12-3.59,6.37-5.5,9.48-.36.58-1.34,1.06-2.06,1.09-7.78.31-15.57.44-23.35.78-3.91.17-7.8.65-11.7.99-4.62.4-9.81-1.82-11.23-7.25-1.76-6.73-4.42-13.23-6.83-19.77-.87-2.36-.41-3.25,2.18-3.58,22.34-2.83,43.3-10.61,64.15-18.54,19.12-7.27,38.01-15.16,56.98-22.81,1.44-.58,3.01-1.18,4.08-2.22,1.75-1.71,3.51-1.43,5.27-.52,20.62,10.64,42.22,18.57,64.69,24.3,5.55,1.42,10.98,3.42,16.3,5.58,1.64.66,3.38,2.52,3.91,4.2,1.8,5.66,3.38,11.43,4.46,17.26.95,5.09-1.35,7.17-6.41,7.99-10.13,1.64-20.2,3.67-30.3,5.48-5.23.94-10.48,1.76-15.72,2.63-.01-.09-.03-.18-.04-.27Z"/>
      <path class="cls-1" d="M130.07,631.58c3.37,5.64,6.62,11.35,10.15,16.89,4.71,7.39,7.26,15.65,9.63,23.92.77,2.71.18,6.1-.67,8.91-1.47,4.88-5.34,6.5-11.58,5.46-.42,4.71-1.01,9.5-5.94,11.83-4.71,2.22-8.95.94-12.98-2.6-2.56,3.67-6.1,5.63-10.39,3.99-3.94-1.5-6.04-5.15-7.83-8.82-3.72,1.8-4.93,1.77-7.87-1.22-7.04-7.18-12.55-15.47-15.48-25.1-4.24-13.92-7.93-28-11.84-42.02-.66-2.38-.27-3.81,2.47-5.06,14.5-6.65,28.82-13.7,43.29-20.43,1.43-.67,3.67-.57,5.17.04,9.86,4.05,19.42,8.76,27.98,15.14,4.02,2.99,7.36,6.9,11.01,10.39,1.13,1.08,2.28,2.14,3.41,3.21,3.63,3.44,4.31,7.9,1.83,11.97-2.11,3.46-6.64,5.12-10.94,3.15-5.9-2.71-11.5-6.05-17.23-9.13-.55-.3-1.07-.66-1.61-.99-.19.15-.39.31-.58.46Z"/>
      <path class="cls-1" d="M291.01,314.76c-1.13,10.69-2.03,21.4-3.46,32.05-1.34,10.01-3.29,19.93-4.86,29.91-1.05,6.71-1.8,13.46-2.87,20.16-1.29,8.03-3.46,15.69-8.67,22.32-2.53,3.23-5.77,3.93-9.2,3.91-7.51-.05-15.02-.56-22.53-.89-2.29-.1-4.58-.32-6.87-.25-2.1.06-3.43-.3-3.79-2.79-1.05-7.21-1.65-14.41-.58-21.67,1.21-8.15,2.21-16.34,3.76-24.43,1.74-9.08,3.87-18.1,6.06-27.08,2.81-11.54,3.73-23.34,5.23-35.06.89-6.91,1.68-13.84,2.54-20.75.28-2.2,2.09-3.38,4.98-3.15,7.6.62,15.19,1.37,22.79,1.95,4.21.32,8.45.36,12.66.68.79.06,2.14.77,2.19,1.29.79,7.91,3.94,15.61,1.91,23.76.23,0,.46.01.69.02Z"/>
      <path class="cls-1" d="M197.22,4.23c2.17-2.67,4.84-3.66,8.07-3.59,8.85.18,16.44,3.7,23.17,9.08,2.59,2.07,4.54,2.32,7.58.94,4.73-2.14,9.72-3.81,14.75-5.16,6.3-1.7,12.04.5,17.18,4,4.24,2.88,8.18,6.22,12.21,9.43,5.1,4.06,8.57,9.31,10.76,15.38.67,1.87,1.1,3.96,1.04,5.94-.32,10.29-1.45,20.48-4.6,30.36-1.06,3.31-1.71,6.75-2.54,10.13-3.44,14.07-9.85,26.81-17.48,39-1.65,2.65-3.43,5.22-5.04,7.89-.88,1.47-1.97,1.49-2.86.41-1.55-1.89-3.13-3.85-4.19-6.03-3.78-7.79-5.53-16.24-7.85-24.53-7.12-25.45-15.79-50.33-30.33-72.71-4.92-7.57-10.97-14.02-18.34-19.24-.51-.36-.95-.8-1.52-1.28ZM248.4,23.59c-.31.27-.63.53-.94.8,1.35,3.55,2.65,7.13,4.08,10.64,1.48,3.64,2.76,7.42,4.76,10.76,1.78,2.98,4.37,5.49,6.73,8.08.41.45,1.9.7,2.17.39,1.77-1.94,4.11-3.84,4.81-6.18,1.27-4.27-.02-8.8-3.37-11.55-5.75-4.72-12.12-8.67-18.24-12.94Z"/>
      <path class="cls-1" d="M102.84,121.53c6.05,2.96,11.65,5.31,16.86,8.32,11.91,6.89,23.43,14.48,35.5,21.07,9.32,5.08,19.2,9.13,28.89,13.5,7.19,3.23,14.42,6.39,21.74,9.29,6.12,2.43,12.34,4.62,18.62,6.6,4.24,1.33,5.23,3.12,2.55,6.69-3.65,4.85-4.92,10.56-6.67,16.17-1.61,5.14-3.76,10.13-6.03,15.03-.85,1.83-2.53,3.38-4.12,4.72-2.48,2.09-4.52,1.82-7.25.05-12.47-8.12-24.98-16.17-37.5-24.21-8.42-5.41-16.82-10.85-25.34-16.1-7.11-4.38-14.37-8.53-21.59-12.71-3.02-1.75-5.57-3.9-6.81-7.27-2.73-7.39-5.41-14.8-8.1-22.2-.44-1.21-.7-2.49-1.23-3.66-2.22-4.93-.48-9.65.48-15.28Z"/>
      <path class="cls-1" d="M180.76,771.14c-.57,1.36-.79,2.65-1.52,3.49-3.08,3.51-6.26,6.94-9.51,10.28-2.14,2.2-4.69,2.09-6.98.33-5.16-3.97-10.3-7.99-15.27-12.19-7.57-6.4-15.17-12.78-22.43-19.52-15.84-14.67-31.42-29.61-47.21-44.33-10.69-9.96-21.68-19.61-32.3-29.64-6.54-6.17-12.64-12.81-18.96-19.22-1.22-1.24-2.49-2.44-3.83-3.55-4.03-3.38-5.18-7.62-3.9-12.64,1.49-5.84,4.94-10.44,9.43-14.24.8-.67,3.03-.68,3.91-.04,3.33,2.42,6.55,5.04,9.48,7.92,5.95,5.87,11.74,11.91,17.46,18.01,1.08,1.15,1.84,2.77,2.3,4.3,4.64,15.51,13.77,27.59,27.26,36.48,2.21,1.46,4.17,3.29,6.27,4.92,6.34,4.93,12.64,9.91,21.43,9.15.74-.06,1.69.24,2.26.72,4.05,3.44,8.14,6.85,12.01,10.49,10.84,10.19,21.59,20.46,32.34,30.74,5.31,5.07,10.58,10.19,15.79,15.37.85.84,1.32,2.07,1.99,3.16Z"/>
      <path class="cls-1" d="M146.5,601.95c-9.02-6.38-18.4-12.06-29.73-15.37,4.05-7.1,7.9-13.82,11.74-20.55,3.14-5.5,6.24-11.03,9.43-16.51,7.57-13.01,15.21-25.98,22.78-38.99,4.79-8.24,9.21-16.72,14.35-24.73,6.25-9.72,13.04-19.1,19.7-28.55,2-2.83,4.25-5.52,6.63-8.03.81-.85,2.43-1.4,3.63-1.33,6.14.38,12.27.95,18.38,1.61,1.77.19,2.6,1.45,1.42,3.07-5.18,7.11-8.78,14.99-12.21,23.05-2.43,5.71-6.08,10.89-9.1,16.35-8.23,14.85-16.68,29.59-24.56,44.62-8.47,16.16-16.41,32.59-24.54,48.92-2.69,5.4-5.24,10.86-7.91,16.44Z"/>
      <path class="cls-1" d="M295.79,190.43c7.01.46,13.78.82,20.53,1.39,4.46.37,6.66,4.52,4.17,7.77-.66.86-1.9,1.73-2.91,1.78-5.38.25-10.77.25-16.16.33-.64,0-1.29.02-1.93-.06-2.32-.28-3.35.56-3.22,3.05.34,6.78.45,13.58.78,20.36.45,9.38-.03,18.68-1.99,27.88-1.07,5.01-1.99,10.06-3.05,15.07-.44,2.1-1.63,3.29-4.01,3.28-13.22-.07-26.43-.02-39.65-.07-5.39-.02-6.43-1.27-6.98-6.6-1.26-12.05-.86-24.05.83-36.02.33-2.36.84-4.7,1.37-7.02.88-3.83,1.83-7.65,2.8-11.47.44-1.74.56-3.75,2.89-4.2,2.6-.51,4.15,1.09,5.45,2.92,1.21,1.7,2.07,3.65,3.34,5.29,1.81,2.35,2.63,2.11,4.79.02,4.33-4.18,2.95-9.22,2.56-14.2-.45-5.74-.37-11.4,4.17-15.83.51-.5,1.18-1.13,1.81-1.17,1.9-.1,2.34-1.42,2.9-2.82,3.11-7.71,10.63-8.98,16.07-2.72,3.25,3.73,4.76,8.21,5.44,13.04Z"/>
      <path class="cls-2" d="M248.4,23.59c6.11,4.27,12.49,8.23,18.24,12.94,3.35,2.75,4.64,7.28,3.37,11.55-.7,2.34-3.04,4.24-4.81,6.18-.28.31-1.76.07-2.17-.39-2.36-2.6-4.95-5.11-6.73-8.08-2-3.34-3.28-7.13-4.76-10.76-1.43-3.52-2.73-7.09-4.08-10.64.31-.27.63-.53.94-.8Z"/>
    </g>
  </g>
</svg>