<?xml version="1.0" encoding="UTF-8"?>
<svg id="Layer_2" data-name="Layer 2" xmlns="http://www.w3.org/2000/svg" viewBox="0 0 261.96 70.44">
  <defs>
    <style>
      .cls-1 {
        fill: #000;
      }

      .cls-1, .cls-2 {
        stroke-width: 0px;
      }

      .cls-2 {
        fill: #ffe9a7;
      }
    </style>
  </defs>
  <g id="Layer_1-2" data-name="Layer 1">
    <g>
      <path class="cls-2" d="M261.96,70.44H0C0,46.96,0,23.48,0,0c87.32,0,174.64,0,261.96,0,0,23.48,0,46.96,0,70.44ZM258.46,2.77c-.74-.25-1.25-.52-1.8-.59-1.24-.18-2.49-.29-3.74-.39-2.6-.2-5.2-.43-7.8-.54-2.31-.1-4.64-.04-6.95-.05-.22,0-.44-.01-.66-.04-2.2-.26-4.38-.62-6.59-.77-2.97-.21-5.93.14-8.9.38-1.85.14-3.71.16-5.56.11-2.17-.06-4.34-.26-6.51-.4-1.01-.06-2.02-.14-3.03-.16-1.57-.03-3.16-.13-4.72-.01-2.24.17-4.46.65-6.7.72-3.03.09-6.06-.12-9.1-.15-4.54-.04-9.07-.05-13.61-.03-2.01.01-4.03.12-6.04.22-2.13.1-4.26.35-6.39.34-2.87,0-5.73-.25-8.6-.29-3.52-.04-7.03,0-10.55.05-3.21.05-6.42.18-9.63.28-.81.02-1.57.16-2.37-.36-.47-.3-1.28-.16-1.92-.08-2.83.35-5.67.62-8.53.55-.16,0-.32-.09-.48-.14-.5-.17-.99-.48-1.49-.48-2.79,0-5.59.04-8.38.13-3.43.12-6.87-.11-10.31.34-1.63.22-3.3.15-4.96.15-3.97,0-7.94-.02-11.91-.06-1.42-.01-2.84-.14-4.25-.12-3.47.04-6.94.13-10.41.2-2.03.04-4.07.07-6.1.1-1.28.02-2.56-.02-3.84.03-2.13.08-4.26.25-6.38.31-1.13.04-2.27-.08-3.4-.08-2.36,0-4.71.05-7.07.05-2.33,0-4.67-.03-7-.06-1.32-.02-2.63-.05-3.95-.07-1.64-.02-3.27-.04-4.91-.05-1.26-.01-2.51-.02-3.77-.03-1.71-.02-3.42-.1-5.13-.05-1.99.06-3.98.22-5.96.35-.26.02-.58-.02-.76.11-.57.44-1.21.3-1.84.31-.98.02-1.96.07-2.94,0-1.14-.09-1.92.63-2.82,1.08-.21.11-.41.44-.43.68-.06.76-.05,1.52-.04,2.28,0,.31.11.62.11.94.02,1.34-.06,2.68.03,4.01.13,1.74.39,3.48.59,5.21.17,1.4.56,2.69,1.43,3.84.43.57.76,1.27.92,1.97.36,1.58.58,3.2.87,4.8.25,1.35-.33,2.41-1.08,3.46-.48.67-.89,1.41-1.19,2.18-.84,2.17-.97,4.46-.7,6.74.14,1.21.49,2.45,1.43,3.32,1.26,1.16,1.71,2.72,2.29,4.23.16.41.14.72-.27,1.02-.69.5-1.35,1.05-1.99,1.61-1.41,1.22-1.85,2.88-1.95,4.64-.1,1.65-.06,3.31-.13,4.96-.1,2.41-.51,4.84.47,7.18.2.49.38.99.59,1.47.05.12.2.24.33.27.47.11.94.18,1.41.27,3.2.56,6.43.9,9.68.93,3.87.04,7.75-.01,11.62-.11,2.49-.06,4.96-.29,7.46-.14,4.1.24,8.21.29,12.32.39,1.32.03,2.64-.02,3.95-.04,3.13-.05,6.27-.08,9.4-.15,3.87-.08,7.74-.21,11.61-.26,3.23-.04,6.47.01,9.7.05,2.49.03,4.99.07,7.48.14,3.08.09,6.17.23,9.25.35,1.71.07,3.42.12,5.13.21,1.93.09,3.85.3,5.78.28,2.25-.02,4.49-.21,6.74-.36,1.23-.08,2.45-.26,3.68-.32,1.31-.07,2.62-.07,3.93-.08.65,0,1.3.1,1.95.05,1.59-.11,3.17-.37,4.75-.41,2.67-.06,5.35.01,8.03.03,4.14.03,8.27.04,12.41.11,1.69.03,3.38.17,5.07.27,1.31.08,2.63.27,3.93.22,1.46-.05,2.92-.41,4.38-.47,2.53-.11,5.07-.09,7.6-.12.11,0,.31.08.32.15.06.42.38.34.64.35,1.46.03,2.91.08,4.37.09,1.51,0,3.03-.06,4.54-.06,3.97,0,7.94.03,11.91-.01,3.73-.04,7.46-.16,11.19-.25,2.51-.06,5.03-.14,7.54-.16,3.01-.02,6.02,0,9.03.04,1.03.01,2.06.19,3.08.16,2.89-.09,5.77-.3,8.66-.38,4.61-.12,9.22-.15,13.83-.27,2.21-.06,4.41-.3,6.62-.35,2.37-.05,4.73.04,7.1.09.77.02,1.53.11,2.29.17.02-.35.02-.63.04-.91.1-1.22.32-2.45.27-3.66-.06-1.4.18-2.95-1.14-4.02-.07-.06-.11-.17-.13-.26-.24-.87-.59-1.73-.7-2.62-.38-3.16-.67-6.33-.99-9.5-.01-.1.02-.2,0-.3-.06-.39-.1-.8-.21-1.18-.12-.43-.38-.84-.46-1.28-.28-1.56-.63-3.13-.72-4.71-.07-1.24-.26-2.48.4-3.75,1.47-2.87,2.6-5.9,3.49-9.01.24-.83.58-1.65.71-2.49.14-.92.12-1.87.13-2.8.04-2.73.03-5.46.09-8.2.04-1.59.23-3.18.25-4.77.01-1.17.57-2.35,0-3.52-.03-.07.03-.19.05-.29.15-.69-.1-1.26-.68-1.63-.22-.14-.44-.33-.6-.54-.6-.76-1.07-.89-1.77-.59Z"/>
      <path class="cls-1" d="M258.46,2.77c.69-.3,1.17-.17,1.77.59.16.21.38.39.6.54.57.37.82.94.68,1.63-.02.1-.09.22-.05.29.56,1.17,0,2.35,0,3.52-.02,1.59-.21,3.18-.25,4.77-.06,2.73-.05,5.46-.09,8.2-.01.94.02,1.88-.13,2.8-.13.85-.48,1.66-.71,2.49-.89,3.11-2.02,6.14-3.49,9.01-.65,1.28-.46,2.51-.4,3.75.09,1.58.44,3.14.72,4.71.08.44.34.84.46,1.28.11.38.15.78.21,1.18.02.1-.01.2,0,.3.32,3.17.61,6.34.99,9.5.11.89.45,1.75.7,2.62.03.09.06.2.13.26,1.32,1.07,1.08,2.62,1.14,4.02.05,1.22-.17,2.44-.27,3.66-.02.28-.03.55-.04.91-.76-.06-1.53-.15-2.29-.17-2.37-.05-4.74-.13-7.1-.09-2.21.04-4.41.29-6.62.35-4.61.12-9.22.15-13.83.27-2.89.08-5.77.28-8.66.38-1.03.03-2.06-.15-3.08-.16-3.01-.03-6.02-.06-9.03-.04-2.51.02-5.03.1-7.54.16-3.73.09-7.46.21-11.19.25-3.97.04-7.94,0-11.91.01-1.51,0-3.03.07-4.54.06-1.46,0-2.91-.05-4.37-.09-.27,0-.58.08-.64-.35-.01-.07-.21-.15-.32-.15-2.53.03-5.07.01-7.6.12-1.46.06-2.92.41-4.38.47-1.31.05-2.62-.14-3.93-.22-1.69-.1-3.38-.24-5.07-.27-4.13-.07-8.27-.08-12.41-.11-2.68-.02-5.35-.09-8.03-.03-1.59.03-3.17.3-4.75.41-.64.05-1.3-.06-1.95-.05-1.31.01-2.62.01-3.93.08-1.23.07-2.45.24-3.68.32-2.25.15-4.49.34-6.74.36-1.92.02-3.85-.19-5.78-.28-1.71-.08-3.42-.14-5.13-.21-3.08-.12-6.17-.26-9.25-.35-2.49-.08-4.99-.12-7.48-.14-3.23-.03-6.47-.08-9.7-.05-3.87.04-7.74.18-11.61.26-3.13.06-6.27.1-9.4.15-1.32.02-2.64.07-3.95.04-4.11-.1-8.22-.15-12.32-.39-2.5-.15-4.97.08-7.46.14-3.87.09-7.75.15-11.62.11-3.25-.03-6.47-.37-9.68-.93-.47-.08-.95-.16-1.41-.27-.13-.03-.28-.15-.33-.27-.21-.48-.39-.98-.59-1.47-.98-2.34-.57-4.76-.47-7.18.07-1.65.03-3.31.13-4.96.1-1.76.54-3.42,1.95-4.64.65-.56,1.3-1.12,1.99-1.61.42-.3.43-.6.27-1.02-.58-1.51-1.03-3.07-2.29-4.23-.94-.87-1.29-2.1-1.43-3.32-.26-2.28-.14-4.57.7-6.74.3-.77.71-1.51,1.19-2.18.76-1.05,1.33-2.11,1.08-3.46-.29-1.6-.51-3.21-.87-4.8-.16-.69-.49-1.4-.92-1.97-.87-1.16-1.27-2.45-1.43-3.84-.21-1.74-.47-3.47-.59-5.21-.1-1.33-.02-2.67-.03-4.01,0-.31-.11-.62-.11-.94-.01-.76-.03-1.52.04-2.28.02-.24.22-.57.43-.68.9-.45,1.68-1.17,2.82-1.08.97.07,1.96.02,2.94,0,.62,0,1.26.13,1.84-.31.18-.14.5-.1.76-.11,1.99-.12,3.97-.29,5.96-.35,1.71-.05,3.42.03,5.13.05,1.26.01,2.51.02,3.77.03,1.64.02,3.27.03,4.91.05,1.32.02,2.63.06,3.95.07,2.33.03,4.67.06,7,.06,2.36,0,4.71-.05,7.07-.05,1.14,0,2.27.12,3.4.08,2.13-.07,4.26-.23,6.38-.31,1.28-.05,2.56-.02,3.84-.03,2.03-.03,4.07-.06,6.1-.1,3.47-.07,6.94-.16,10.41-.2,1.42-.02,2.83.11,4.25.12,3.97.03,7.94.06,11.91.06,1.65,0,3.33.06,4.96-.15,3.43-.45,6.87-.23,10.31-.34,2.79-.09,5.59-.13,8.38-.13.5,0,.99.31,1.49.48.16.05.32.14.48.14,2.86.07,5.69-.2,8.53-.55.64-.08,1.45-.22,1.92.08.8.52,1.56.38,2.37.36,3.21-.1,6.42-.23,9.63-.28,3.52-.06,7.03-.09,10.55-.05,2.87.04,5.74.28,8.6.29,2.13,0,4.26-.24,6.39-.34,2.01-.1,4.03-.21,6.04-.22,4.54-.02,9.07-.01,13.61.03,3.03.03,6.07.24,9.1.15,2.24-.07,4.46-.55,6.7-.72,1.57-.12,3.15-.02,4.72.01,1.01.02,2.02.1,3.03.16,2.17.14,4.34.34,6.51.4,1.85.05,3.72.04,5.56-.11,2.96-.23,5.92-.59,8.9-.38,2.2.15,4.39.51,6.59.77.22.03.44.04.66.04,2.32.01,4.64-.04,6.95.05,2.6.11,5.2.34,7.8.54,1.25.1,2.5.21,3.74.39.54.08,1.06.34,1.8.59ZM7.42,40.47c.05,1.05.31,1.92.93,2.67.62.74,1.08,1.55,1.13,2.55.04.67.07,1.35.17,2.02.16,1.08.19,2.15-.29,3.15-.84,1.79-1.73,3.55-2.61,5.33-.26.53-.52,1.05-.68,1.37.77,2.11.25,4.08.36,6.08.62-.05,1.26-.15,1.91-.14,3.62.06,7.25.21,10.87.21,3.04,0,6.09-.13,9.13-.23,1.42-.05,2.85-.15,4.27-.23,2.16-.12,4.31-.26,6.47-.35.73-.03,1.46.08,2.2.11,1.29.05,2.58.1,3.87.12,2.85.05,5.7.08,8.55.13.35,0,.7.09,1.05.14.8.11,1.59.31,2.39.31,1.04,0,2.09-.18,3.13-.21,1.34-.04,2.68,0,4.02,0,.3,0,.6.02.9,0,2.5-.19,5-.51,7.5-.56,2.8-.06,5.61-.14,8.41.17,1.47.16,2.98-.08,4.47-.08,4.13.02,8.26.08,12.39.11.75,0,1.5-.1,2.26-.1.67,0,1.34.1,2.02.1,1.13-.01,2.26-.1,3.4-.1.77,0,1.55.13,2.31.1.96-.03,1.89-.21,2.89-.03,1.26.22,2.57.14,3.87.16,1.44.02,2.89.03,4.33,0,1.94-.05,3.89-.16,5.83-.23,1.69-.06,3.38-.13,5.07-.11,2.84.04,5.69.14,8.53.23.39.01.78.08,1.18.13,1.47.16,2.93.39,4.4.45,1.61.06,3.22-.05,4.83-.11.45-.02.89-.13,1.34-.19,1.13-.14,2.26-.35,3.4-.39,1.29-.05,2.58.05,3.87.1.73.03,1.46.08,2.2.11,2.04.08,4.09.18,6.13.24,1.95.06,3.9.08,5.85.13.45.01.91.12,1.35.1,1.05-.05,2.09-.18,3.13-.22.59-.02,1.18.12,1.78.1,4.59-.12,9.19.27,13.78-.32,1.5-.19,3.06,0,4.59.09,1.08.06,2.15.24,3.22.34.73.07,1.47.15,2.19.11,1.38-.07,2.75-.28,4.12-.32,1.13-.04,2.26.06,3.39.11.75.03,1.5.1,2.26.12,1.23.05,2.47.17,3.69.09,1.42-.09,2.83-.49,4.25-.55,2.12-.1,4.25-.06,6.37-.02,2.22.04,4.45.2,6.67.21,1.5,0,3-.14,4.5-.22.67-.04,1.35-.06,2.02-.13,1.65-.15,3.29-.4,4.94-.45,1.87-.06,3.74.03,5.61.11.78.03,1.55.26,2.33.32,1.12.09,2.25.11,3.5.17-.24-.73-.39-1.36-.67-1.94-.93-1.99-1.55-4.03-1.13-6.27.05-.29.14-.6.1-.88-.17-1.05-.41-2.09-.6-3.14-.52-2.85-1.02-5.71-1.07-8.62,0-.23-.07-.47-.16-.68-.2-.47-.41-.94-.65-1.4-.07-.13-.21-.3-.34-.32-1.12-.14-2.25-.22-3.37-.39-.75-.12-1.5-.31-2.23-.55-.46-.15-.78-.57-.66-1.07.08-.34.32-.77.61-.92.58-.31,1.24-.55,1.89-.64.98-.13,2.04-.33,2.96-.1,1.17.3,1.57-.17,1.98-1.07.35-.74,1.05-1.36,1.25-2.13.52-1.93.82-3.92,1.25-5.87.2-.9.05-1.97,1.06-2.47-.04-.39-.12-.74-.12-1.09.03-2.15.08-4.3.14-6.46.02-.74.19-1.49.08-2.2-.27-1.78.03-3.49.52-5.17.23-.79-.15-1.44-.42-2.09-.07-.18-.71-.12-1.08-.17-.1-.01-.2-.04-.29-.05-1.3-.06-2.59-.13-3.89-.17-.96-.03-1.96.16-2.87-.07-2.13-.54-4.29-.6-6.45-.65-.67-.01-1.34.09-2.02.1-.35,0-.7-.07-1.05-.08-.47-.02-.94.03-1.41-.01-.81-.06-1.61-.23-2.41-.24-1.27-.02-2.55.06-3.82.11-.61.02-1.22.11-1.84.11-.69,0-1.38-.11-2.08-.1-2.37.02-4.74.05-7.11.12-1.8.05-3.61.16-5.41.23-2.22.09-4.45.15-6.67.25-1.4.06-2.81.17-4.21.23-2.83.13-5.67.24-8.5.36-.22,0-.44,0-.66,0-1.96.1-3.9.57-5.89.26-1.05-.17-2.14-.13-3.21-.14-1.8-.02-3.61.04-5.41-.02-2.2-.07-4.39-.21-6.59-.36-.88-.06-1.76-.24-2.64-.3-1.15-.08-2.3-.2-3.45-.13-2.1.12-4.2.48-6.3.54-3.9.12-7.8.1-11.7.15-.18,0-.36,0-.54,0-1.83.04-3.67.15-5.49.09-2.09-.07-4.17-.32-6.26-.44-1.02-.06-2.05-.02-3.07,0-.59.01-1.19.09-1.78.11-1.3.05-2.61.07-3.91.12-1.48.06-2.97.17-4.45.23-.62.03-1.25.06-1.85-.03-1.04-.14-2.06-.46-3.1-.54-1.48-.12-2.98-.13-4.47-.13-.72,0-1.45.17-2.17.21-.52.03-1.04,0-1.55-.02-1.97-.06-3.94-.16-5.91-.19-.72,0-1.47.07-2.16.28-1.65.51-3.32.39-4.99.29-.76-.05-1.52-.19-2.29-.25-1.02-.07-2.04-.13-3.06-.13-1.1,0-2.22.63-3.31-.07-.04-.03-.12-.02-.18-.02-.59.03-1.18.07-1.77.11-1.24.08-2.49.19-3.73.23-1.1.04-2.2.02-3.31-.02-1.19-.04-2.42-.35-3.57-.16-1.92.31-3.83.3-5.75.3-.67,0-1.34-.06-2.02-.12-1.18-.11-2.36-.32-3.54-.33-1.44-.01-2.89.15-4.33.21-2.2.09-4.41.18-6.61.23-.85.02-1.7-.1-2.56-.11-4.08-.05-8.15-.08-12.23-.13-.71,0-1.47-.24-2.13-.07-1.03.25-2.04.2-3.06.17-.92-.02-1.83-.07-2.75-.11-1.56-.07-3.13-.21-4.69-.21-1.26,0-2.53.18-3.79.21-1.74.04-3.49,0-5.23,0-1.04,0-2.07,0-3.11,0-1,0-2.02-.09-3.01.02-1.47.17-2.93.49-4.39.75-.27.05-.53.13-.63.16.14.6.31,1.11.36,1.64.17,1.92.25,3.86.46,5.77.17,1.49.45,2.98.77,4.45.32,1.49.77,2.94,1.1,4.43.17.79.27,1.6.29,2.41.01.72-.11,1.45-.21,2.17-.24,1.72-.48,3.45-.76,5.16-.14.83-.37,1.63-.59,2.54.7-.16,1.31-.28,1.9-.44,1.59-.42,3.11-.44,4.54.53.42.28.67.63.51,1.09-.19.54-.44,1.1-.8,1.54-.23.29-.69.48-1.08.54-.74.12-1.51.15-2.26.17-.95.03-1.9,0-2.92,0Z"/>
      <path class="cls-2" d="M7.42,40.47c1.02,0,1.97.02,2.92,0,.76-.02,1.52-.05,2.26-.17.39-.06.84-.25,1.08-.54.36-.44.61-1,.8-1.54.16-.46-.1-.81-.51-1.09-1.43-.97-2.96-.95-4.54-.53-.6.16-1.21.28-1.9.44.21-.9.45-1.71.59-2.54.28-1.72.52-3.44.76-5.16.1-.72.23-1.45.21-2.17-.02-.81-.12-1.62-.29-2.41-.33-1.48-.78-2.94-1.1-4.43-.31-1.47-.6-2.95-.77-4.45-.22-1.92-.29-3.85-.46-5.77-.05-.53-.22-1.04-.36-1.64.1-.02.36-.11.63-.16,1.46-.26,2.92-.58,4.39-.75.99-.12,2.01-.02,3.01-.02,1.04,0,2.07,0,3.11,0,1.74,0,3.49.03,5.23,0,1.26-.03,2.53-.22,3.79-.21,1.56,0,3.13.14,4.69.21.92.04,1.83.09,2.75.11,1.02.02,2.03.08,3.06-.17.66-.16,1.42.06,2.13.07,4.08.05,8.15.08,12.23.13.85.01,1.7.13,2.56.11,2.2-.05,4.41-.14,6.61-.23,1.44-.06,2.89-.23,4.33-.21,1.18,0,2.36.22,3.54.33.67.06,1.34.12,2.02.12,1.92,0,3.83,0,5.75-.3,1.15-.18,2.38.12,3.57.16,1.1.04,2.2.05,3.31.02,1.24-.04,2.49-.15,3.73-.23.59-.04,1.18-.07,1.77-.11.06,0,.13-.01.18.02,1.09.69,2.21.06,3.31.07,1.02,0,2.04.06,3.06.13.76.05,1.52.2,2.29.25,1.67.1,3.34.22,4.99-.29.68-.21,1.44-.29,2.16-.28,1.97.02,3.94.12,5.91.19.52.02,1.04.05,1.55.02.73-.05,1.45-.21,2.17-.21,1.49,0,2.99,0,4.47.13,1.04.09,2.06.4,3.1.54.61.08,1.24.05,1.85.03,1.48-.06,2.97-.16,4.45-.23,1.3-.06,2.61-.08,3.91-.12.59-.02,1.19-.1,1.78-.11,1.02-.02,2.05-.06,3.07,0,2.09.12,4.17.37,6.26.44,1.83.06,3.66-.05,5.49-.09.18,0,.36,0,.54,0,3.9-.04,7.8-.02,11.7-.15,2.1-.07,4.2-.42,6.3-.54,1.14-.07,2.3.05,3.45.13.88.06,1.76.25,2.64.3,2.19.14,4.39.29,6.59.36,1.8.06,3.61,0,5.41.02,1.07.01,2.16-.03,3.21.14,1.99.32,3.93-.15,5.89-.26.22-.01.44,0,.66,0,2.83-.12,5.67-.23,8.5-.36,1.4-.06,2.81-.17,4.21-.23,2.22-.09,4.45-.16,6.67-.25,1.8-.07,3.61-.18,5.41-.23,2.37-.06,4.74-.1,7.11-.12.69,0,1.38.1,2.08.1.61,0,1.22-.08,1.84-.11,1.27-.05,2.55-.12,3.82-.11.81,0,1.61.18,2.41.24.47.04.94,0,1.41.01.35.01.7.09,1.05.08.67-.02,1.34-.12,2.02-.1,2.17.05,4.32.11,6.45.65.9.23,1.91.04,2.87.07,1.3.04,2.6.11,3.89.17.1,0,.2.03.29.05.38.05,1.01,0,1.08.17.27.65.65,1.3.42,2.09-.49,1.69-.8,3.39-.52,5.17.11.71-.06,1.47-.08,2.2-.05,2.15-.1,4.3-.14,6.46,0,.35.07.7.12,1.09-1,.5-.86,1.57-1.06,2.47-.43,1.95-.74,3.94-1.25,5.87-.2.76-.91,1.38-1.25,2.13-.42.9-.82,1.37-1.98,1.07-.92-.24-1.98-.04-2.96.1-.65.09-1.3.34-1.89.64-.29.15-.52.58-.61.92-.12.5.2.92.66,1.07.72.24,1.47.44,2.23.55,1.12.17,2.25.25,3.37.39.13.02.27.18.34.32.23.46.45.92.65,1.4.09.21.16.45.16.68.05,2.91.55,5.77,1.07,8.62.19,1.05.42,2.09.6,3.14.05.28-.04.59-.1.88-.42,2.23.2,4.27,1.13,6.27.27.58.42,1.22.67,1.94-1.25-.06-2.38-.08-3.5-.17-.78-.06-1.55-.29-2.33-.32-1.87-.08-3.74-.17-5.61-.11-1.65.05-3.29.3-4.94.45-.67.06-1.34.09-2.02.13-1.5.08-3,.23-4.5.22-2.22-.01-4.45-.17-6.67-.21-2.12-.04-4.25-.08-6.37.02-1.42.07-2.83.46-4.25.55-1.22.08-2.46-.04-3.69-.09-.75-.03-1.5-.09-2.26-.12-1.13-.05-2.27-.15-3.39-.11-1.38.05-2.75.25-4.12.32-.73.04-1.46-.04-2.19-.11-1.08-.1-2.15-.28-3.22-.34-1.53-.08-3.09-.28-4.59-.09-4.59.58-9.19.2-13.78.32-.59.01-1.19-.12-1.78-.1-1.05.04-2.09.17-3.13.22-.45.02-.9-.09-1.35-.1-1.95-.05-3.9-.07-5.85-.13-2.04-.06-4.09-.15-6.13-.24-.73-.03-1.46-.09-2.2-.11-1.29-.05-2.59-.15-3.87-.1-1.14.04-2.26.25-3.4.39-.45.06-.89.17-1.34.19-1.61.06-3.23.16-4.83.11-1.47-.05-2.93-.29-4.4-.45-.39-.04-.78-.11-1.18-.13-2.84-.09-5.69-.19-8.53-.23-1.69-.02-3.38.06-5.07.11-1.94.07-3.89.18-5.83.23-1.44.04-2.89.02-4.33,0-1.29-.02-2.61.06-3.87-.16-1-.18-1.92,0-2.89.03-.77.03-1.54-.1-2.31-.1-1.13,0-2.26.09-3.4.1-.67,0-1.34-.1-2.02-.1-.75,0-1.5.11-2.26.1-4.13-.03-8.26-.09-12.39-.11-1.49,0-3,.24-4.47.08-2.81-.31-5.61-.23-8.41-.17-2.5.05-5,.37-7.5.56-.3.02-.6,0-.9,0-1.34,0-2.68-.03-4.02,0-1.05.03-2.09.21-3.13.21-.8,0-1.59-.2-2.39-.31-.35-.05-.7-.13-1.05-.14-2.85-.05-5.7-.08-8.55-.13-1.29-.02-2.58-.07-3.87-.12-.73-.03-1.47-.14-2.2-.11-2.16.09-4.31.23-6.47.35-1.42.08-2.85.19-4.27.23-3.04.1-6.09.23-9.13.23-3.62,0-7.25-.15-10.87-.21-.64-.01-1.29.09-1.91.14-.11-2,.41-3.97-.36-6.08.16-.32.42-.85.68-1.37.87-1.77,1.76-3.54,2.61-5.33.47-1,.44-2.07.29-3.15-.1-.67-.13-1.34-.17-2.02-.06-1-.52-1.81-1.13-2.55-.63-.75-.88-1.62-.93-2.67ZM23.41,25.03c-.21-1.22-.34-2.36-.61-3.47-.94-3.82-1.82-7.65-2.07-11.59-.04-.64-.33-.85-.97-.78-1.11.13-2.22.2-3.31.4-1.5.28-2.99.64-4.48.99-.63.15-.76.44-.58,1.06.09.32.24.63.33.96.83,2.74,1.62,5.49,2.49,8.22,1.38,4.36,2.8,8.7,4.2,13.05.61,1.88,1.2,3.77,1.85,5.63.09.26.49.59.75.59,2.05.02,4.1-.05,6.15-.07.41,0,.57-.18.64-.54.16-.8.35-1.6.49-2.4.45-2.48.87-4.96,1.31-7.45.15-.83.31-1.65.46-2.48,1.39,3.94,2.61,7.89,3.88,11.84.41,1.27.76,1.14,1.63,1.09,1.54-.09,3.1-.02,4.64-.11.42-.03,1.12.21,1.26-.55.37-1.95.66-3.92,1.1-5.85.77-3.31,1.51-6.64,2.48-9.89.89-2.97,2.13-5.83,2.67-8.9.17-1,.41-1.99.57-2.99.21-1.27-.16-1.88-1.28-2.04-1-.14-2.02-.22-3.03-.27-.83-.04-1.67-.04-2.5.01-.45.03-.9.18-1,.76-.09.52-.25,1.03-.34,1.55-.57,3.53-1.11,7.07-1.68,10.6-.15.95-.37,1.89-.59,2.97-.4-1.18-.74-2.2-1.08-3.23-1.28-3.82-2.51-7.66-3.86-11.46-.53-1.49-.54-1.58-1.83-1.22-1.42.4-2.85.84-4.22,1.38-.46.18-.95.69-1.1,1.16-1.03,3.2-1.5,6.51-1.95,9.83-.14,1.04-.29,2.07-.45,3.2ZM142.36,25.81s.08.08.11.17c.52,1.9,1.02,3.81,1.55,5.71.62,2.22,1.44,4.38,1.8,6.67.18,1.2.37,1.3,1.33,1.41,1.29.16,2.57.31,3.86.48,1.14.15,2-.31,2.42-1.4.3-.77.6-1.56.78-2.36.39-1.74.63-3.53,1.06-5.26.85-3.41,1.72-6.83,2.73-10.2.82-2.72,1.45-5.48,2-8.26.15-.74-.03-1.04-.79-1.17-1.27-.22-2.55-.42-3.84-.55-1.01-.1-2.03-.07-3.04-.1-.51-.02-.74.3-.84.74-.15.63-.32,1.27-.43,1.91-.47,2.79-.92,5.59-1.38,8.39-.08.51-.14,1.03-.22,1.55-.26-.48-.44-.96-.6-1.45-1.17-3.41-2.33-6.83-3.5-10.24-.19-.55-.5-.94-1.13-.97-.62-.03-1.26-.16-1.86-.08-1.14.15-2.27.36-3.38.65-.77.2-1.28.75-1.5,1.56-.34,1.3-.74,2.58-1.06,3.89-.49,2.04-.95,4.09-1.39,6.13-.18.85-.3,1.71-.45,2.57-.34-1.34-.6-2.67-.85-4.01-.6-3.14-1.19-6.29-1.81-9.43-.22-1.08-.32-1.16-1.39-1.3-1.62-.22-3.24-.36-4.88-.19-1.02.11-1.47.65-1.29,1.64.15.83.31,1.67.48,2.5.87,4.37,1.73,8.73,2.6,13.1.44,2.19.92,4.37,1.36,6.56.33,1.65.62,3.31.92,4.97.1.56.39.84.97.84.54,0,1.08.01,1.62.01,2.07,0,4.15,0,6.22-.03.23,0,.57-.21.67-.42.2-.42.25-.91.38-1.37.31-1.1.69-2.19.92-3.3.65-3.12,1.24-6.25,1.85-9.35ZM212.6,19.67c.19-.3.33-.52.47-.73,1.21-1.77,2.41-3.54,3.62-5.31.19-.29.35-.6.07-.92-.63-.72-1.24-1.49-2.17-1.83-1.08-.39-2.17-.8-3.28-1.04-1.28-.27-2.61-.3-3.9-.55-1.94-.38-3.88-.37-5.81-.2-2.12.19-4.06,1.04-5.85,2.16-.7.44-1.33,1.09-1.82,1.77-1.2,1.66-1.62,3.65-2.01,5.6-.3,1.49.22,2.81,1.35,3.82.68.61,1.4,1.19,2.16,1.7,1.99,1.34,4.03,2.62,6.39,3.24,1.4.37,2.8.71,4.19,1.12.77.23,1.54.51,2.25.89.89.49,1.02,1.33.25,1.99-.51.44-1.22.84-1.87.9-1.81.18-3.59-.13-5.16-1.08-1.44-.87-2.78-1.89-4.2-2.87-.26.15-.61.34-.95.55-1.15.69-2.33,1.35-3.44,2.1-.44.3-.78.79-1.05,1.26-.13.22-.12.67.02.87.62.83,1.31,1.59,1.97,2.39,1.65,2.01,3.79,3.23,6.27,3.91,1.36.37,2.7.77,4.06,1.15,3.35.93,6.53.48,9.18-1.75,2.25-1.88,4.05-4.24,4.93-7.1.54-1.77.5-3.6-.34-5.31-1.06-2.15-2.62-3.86-4.91-4.71-2.03-.75-4.12-1.37-6.18-2.05-1.49-.49-3.04-.87-4.3-2.1.91-.23,1.72-.56,2.55-.63,2.01-.18,3.86.36,5.55,1.47.65.43,1.3.84,1.98,1.29ZM171.54,18.73c.89-.06,1.7-.11,2.51-.17,1.33-.09,2.65-.28,3.98-.27,2.28.02,4.56.14,6.84.25,1.05.05,1.76.12,1.77-1.37.01-1.71.07-3.42.11-5.14,0-.29,0-.58,0-.89-.2-.02-.31-.04-.43-.04-1.58.05-3.15.17-4.73.14-3.25-.07-6.5-.31-9.74-.32-2.51-.01-5.01.22-7.52.33-.39.02-.52.23-.51.58,0,.62.03,1.24.01,1.86-.07,3.13-.08,6.25-.26,9.37-.14,2.39-.42,4.76-.29,7.16.06.99.04,2-.11,2.98-.31,2.01-.18,4.01-.02,6.02.02.23.35.58.59.63.46.1.96.04,1.45.04,1.54,0,3.08.04,4.62.01,5.01-.08,10.03-.16,15.04-.27.85-.02,1.69-.13,2.69-.21.06-2.01.13-3.94.17-5.87,0-.14-.18-.33-.33-.42-1.51-.94-3.18-1.3-4.93-1.25-3.01.08-6.02.22-9.03.33-.66.02-1.33,0-2.05,0,.1-.73.27-1.48.27-2.22,0-.67.31-.86.88-.88,1.97-.08,3.94-.2,5.92-.22,1.11-.01,2.22.14,3.33.18.44.02,1.09.15,1.14-.5.1-1.49.13-2.99.11-4.48-.02-.92-.19-1.83-.29-2.78-3.81.51-7.49.09-11.16-.17v-2.42ZM238.96,18.46c.3,0,.53,0,.77,0,2.31.07,4.62.16,6.93.22.23,0,.51-.11.68-.26.52-.47.46-1.12.42-1.73-.11-1.73-.63-3.36-1.33-4.93-.18-.4-.34-.85-.97-.88-1.43-.08-2.85-.3-4.27-.37-3.01-.14-6.02-.3-9.03-.3-3.91,0-7.81.13-11.72.21-.3,0-.59.06-.89.07-.47.02-.57.26-.55.7.14,2.21.25,4.42.37,6.62.02.48.24.72.73.75.76.04,1.52.04,2.27.15,2.53.36,5.06.52,7.67.41.02.14.05.29.05.44.08,2.29.14,4.58.22,6.88.14,3.71.31,7.41.45,11.12.03.87.07.99.9,1.21,2.52.66,5.11.6,7.69.62.38,0,.88-.08.88-.67,0-1.26.08-2.52-.03-3.77-.22-2.59-.55-5.18-.8-7.77-.19-1.96-.33-3.93-.45-5.89-.06-.93,0-1.86,0-2.84ZM73.19,30.8c0-.18-.02-.29-.02-.4.03-2.85.03-5.7.1-8.55.04-1.89.16-3.78.25-5.67.06-1.27.14-2.54.2-3.82.03-.56-.14-.97-.77-1.05-1.06-.13-2.12-.31-3.19-.4-1.07-.09-2.15-.06-3.23-.15-.94-.08-.97-.08-1.02.88-.08,1.73-.2,3.46-.28,5.18-.12,2.62-.32,5.25-.31,7.87.02,3.74.2,7.49.32,11.23.03.95.08,1.9.14,2.85.02.38.21.53.62.52.68-.02,1.36.07,2.03.06,6.01-.02,12.02-.05,18.03-.08.33,0,.67,0,1.11,0,0-.59.02-1.13,0-1.66-.06-1.53-.15-3.06-.2-4.6-.04-1.15-.08-1.21-1.2-1.28-.1,0-.2-.02-.29-.04-2.79-.65-5.64-.8-8.48-.9-1.25-.05-2.51,0-3.8,0ZM89.54,35.09s.04,0,.05,0c0,1-.01,2,0,2.99.01.79.42,1.29,1.07,1.31.46.01.91-.03,1.37-.05,1.14-.05,2.3-.23,3.43-.12,2.12.22,4.21.36,6.34-.02,4.58-.82,8.12-3.23,10.87-6.85.96-1.27,1.62-2.76,2.45-4.13.76-1.24.95-2.6.82-3.98-.28-3.01-1.19-5.78-3.12-8.21-2.31-2.9-5.13-4.9-8.8-5.7-2.03-.44-4.04-.73-6.09-.17-.43.12-.9.09-1.36.1-.95,0-1.92-.08-2.86,0-1.16.1-2.3.38-3.46.5-.85.09-.91.09-.89.91.01.34,0,.68.01,1.02.05,2.29.09,4.58.16,6.87.08,2.77.27,5.53.28,8.3,0,2.41-.18,4.82-.28,7.22ZM97.47,49.73c-.2-1.14-.39-2.18-.56-3.22-.13-.86-.19-1.73-.35-2.58-.04-.21-.32-.51-.51-.53-.82-.06-1.66-.07-2.48-.02-.53.03-1.07.16-1.57.32-.21.07-.49.33-.5.51-.01.76-.05,1.54.13,2.27.77,3.19,1.64,6.36,2.42,9.55.27,1.11.42,2.25.64,3.5.5-.12.97-.26,1.44-.33.96-.14,1.93-.22,2.89-.36.18-.03.4-.21.48-.38.25-.47.45-.97.64-1.47.43-1.16.83-2.32,1.22-3.45.49,1.4.99,2.79,1.47,4.19.05.14.08.31.06.45-.09.62.04.85.65.81,1.01-.07,2.02-.18,3.02-.35.86-.15,1.38-.7,1.58-1.57.14-.6.37-1.18.52-1.78.77-3.17,1.53-6.35,2.3-9.52.17-.69-.36-1.31-1.07-1.33-1.12-.03-2.24-.06-3.34-.18-.86-.09-1.28.17-1.38,1.04-.12,1.11-.24,2.22-.37,3.37-.41-1.13-.83-2.2-1.18-3.28-.12-.37-.12-.79-.11-1.19,0-.36-.06-.71-.45-.7-1.03.02-2.07.07-3.09.19-.46.05-1,.24-.63.94.02.04-.02.11-.04.16-.24.62-.5,1.23-.72,1.86-.37.99-.72,1.99-1.1,3.06ZM31.45,49.81c-.62-1.73-1.2-3.35-1.77-4.97-.03-.07-.03-.15-.03-.23.02-.58-.32-.84-.82-.75-1.05.19-2.08.45-3.11.72-.16.04-.32.34-.37.54-.2.85-.35,1.71-.54,2.56-.13.56-.29,1.11-.43,1.63-.33-1.58-.67-3.15-.99-4.72-.11-.54-.39-.87-.97-.87-.69,0-1.39-.06-2.08.02-1.64.2-2.1.92-1.72,2.52.58,2.41,1.11,4.83,1.73,7.23.41,1.59.97,3.13,1.39,4.71.19.71.21,1.43,1.25,1,.04-.02.1.07.16.07.85.08,1.7.17,2.55.24.5.04.88-.07.79-.72-.02-.16.09-.34.15-.5.39-.99.8-1.97,1.18-2.96.15-.4.25-.82.39-1.31.53,1.7,1.02,3.31,1.52,4.92.12.41.32.68.82.56.12-.03.26.03.39.03.83.04,1.67.1,2.5.11.16,0,.41-.12.48-.26.2-.4.36-.83.47-1.26.54-2.11,1.07-4.23,1.59-6.34.48-1.98.94-3.96,1.42-5.94.13-.55-.17-.95-.58-1.02-1.37-.23-2.76-.4-4.15-.47-.74-.04-.89.28-.75,1.01.03.14.04.28.02.41-.15,1.32-.32,2.63-.49,4.03ZM51.65,39.42c.36,0,.65,0,.95,0,1.95.03,3.9.04,5.85.1.55.02.73-.18.69-.67-.07-.95-.19-1.9-.23-2.85-.15-4.19.14-8.36.37-12.54.16-2.9.37-5.79.6-8.69.09-1.21.31-2.4.41-3.61.02-.24-.2-.66-.4-.73-.59-.21-1.22-.39-1.84-.4-2.05-.05-4.1-.08-6.15-.02-.93.03-.95.14-.93,1.06.04,1.83.1,3.66.13,5.49.12,6.62.24,13.24.37,19.86.02.99.12,1.98.18,3.01ZM240.82,57.93c.06,1,.5,1.47,1.67,1.5.61.02,1.23,0,1.84-.01.4-.01.72-.21.72-.64.01-1.89-.02-3.77,0-5.66,0-.42.21-.85.16-1.26-.13-1.12-.89-1.88-1.65-2.62-.54-.52-.93-.51-1.48,0-.19.17-.46.37-.69.36-1.07-.04-2.15-.14-3.22-.23-.12-.01-.23-.13-.34-.21-.48-.38-.95-.23-1.06.36-.16.91-.31,1.83-.43,2.75-.1.76.48,1.41,1.25,1.39.59-.02,1.18-.07,1.91-.11-.39.27-.67.45-.94.65-.94.71-1.8.62-2.76-.05-2.43-1.71-1.94-3.99-.33-5.7.92-.98,4.06-1.09,5.23-.23.5.37.77.21,1.11-.14.46-.49.91-1,1.41-1.46.56-.52.58-1.02-.01-1.48-2.04-1.59-4.31-2.42-6.93-2-1.52.24-2.91.75-4.03,1.9-1.23,1.27-2.04,2.78-2.69,4.39-.61,1.52-.83,3.12-.56,4.72.35,2.08,1.53,3.67,3.33,4.78,1.5.93,3.1,1.38,4.82.68,1.26-.51,2.47-1.13,3.66-1.69ZM163.63,53.77c1.66.09,3.25.17,4.84.27.79.05,1.52.04,1.69-.97.02-.09.11-.16.16-.25.61-1.04.54-2.13.21-3.23-.14-.48-.51-.57-.95-.39-.2.09-.44.14-.66.14-.42,0-.83-.08-1.25-.11-1.3-.09-2.61-.17-3.92-.25v-.7c1.03,0,2.02-.03,3.01,0,1.39.05,2.78.15,4.17.21.49.02.83-.24.81-.73-.03-1.29.24-2.62-.54-3.82-.24-.38-.48-.59-.93-.59-.85,0-1.71-.03-2.56-.04-2.65-.03-5.3-.06-7.95-.06-.63,0-1.2.72-1.21,1.33,0,2.03-.03,4.06-.07,6.09-.04,2.23-.12,4.45-.16,6.68-.02,1.02.75,1.87,1.84,1.81,1.37-.08,2.76.01,4.13,0,2.27,0,4.55-.03,6.82-.07.37,0,.74-.12,1.09-.22.11-.03.24-.21.25-.32.02-.99.02-1.97,0-2.96,0-.47-.26-.71-.74-.74-1.8-.14-3.6-.33-5.4-.46-.89-.06-1.79-.01-2.71-.01v-.61ZM199.34,49.74c-.47-.54-.99-1.09-1.45-1.67-.88-1.12-1.78-2.24-2.57-3.42-.34-.51-.44-1.2-1.29-.71-.06.03-.18-.08-.28-.08-1.17,0-2.34-.04-3.51,0-.55.02-.74.38-.62.92.06.27.11.54.12.82.03,1.08.05,2.15.07,3.23.06,3.11.12,6.22.17,9.33.01.8.12.93.89,1.03.73.09,1.46.16,2.19.24.89.09,1.52-.36,1.58-1.28.07-1.21.04-2.42.06-3.63,0-.47,0-.93,0-1.45.09.06.15.08.17.12,1.2,1.7,2.42,3.39,3.6,5.1.3.43.55.92,1.1,1,.96.13,1.93.23,2.9.25,1.01.02,1.36-.32,1.42-1.26.09-1.43.19-2.87.19-4.3,0-2.15-.11-4.3-.14-6.46-.01-.85.09-1.71.07-2.57,0-.27-.17-.68-.39-.79-1.1-.58-2.28-.62-3.35.04-.51.32-.99.8-.95,1.58.06,1.31.02,2.63.02,3.97ZM126.58,50.53c.13,1.51.18,2.76.35,4,.17,1.26.74,2.53,1.7,3.19,1.45.99,3.16,1.6,4.8,2.28,1.21.5,2.47.15,3.72.02,2.62-.27,4.69-1.39,6.05-3.68.08-.14.13-.43.05-.51-.79-.83-1.6-1.64-2.41-2.45-.28-.28-.55-.19-.86,0-.61.36-1.22.76-1.89.99-1.56.54-3.09.35-4.53-.46-1.43-.8-1.71-2.67-.64-3.92.99-1.16,2.29-1.39,3.71-1.37.89.01,1.5.41,1.92,1.17.26.47.67.51,1,.09.83-1.05,1.18-2.31,1.51-3.57.11-.4.18-.81.23-1.22.07-.55-.29-1.14-.87-1.42-2.14-1.04-4.37-1.54-6.76-1.14-1.51.25-2.79,1.01-4.01,1.84-1.29.88-2.35,1.99-2.68,3.59-.19.93-.28,1.88-.39,2.59ZM91.69,52.47c-.07-.49-.14-1.3-.3-2.1-.72-3.54-2.3-6.36-6.16-7.25-.14-.03-.28-.13-.4-.1-1.42.27-2.87.43-4.23.87-1.6.52-2.8,1.62-3.48,3.2-.26.6-.44,1.23-.69,1.83-.34.8-.32,1.62-.18,2.45.18,1.05.37,2.1.54,3.16.19,1.16.6,2.26,1.35,3.12,1.83,2.1,4.29,2.6,6.94,2.41,1.2-.08,2.2-.74,3.21-1.33,2.29-1.32,3.43-3.28,3.4-6.25ZM218.44,51.6s.09-.05.13-.07c1.31,1.75,2.65,3.48,3.91,5.27.52.74,1.34,1.29,1.55,2.26.02.1.21.22.33.22,1.05.01,2.1.05,3.14-.03.52-.04.66-.49.49-1.03-.04-.14-.01-.3-.01-.46.02-1.51.07-3.02.06-4.54,0-1.11-.11-2.21-.13-3.32-.01-.71.08-1.43.07-2.14,0-1.03-.06-2.06-.08-3.09-.01-.57-.26-.78-.87-.74-.18.01-.37-.08-.55-.12-.17-.04-.39-.16-.5-.1-.69.39-1.44.19-2.16.25-.36.03-.58.22-.6.6-.04.77-.1,1.55-.12,2.32-.02.81,0,1.61,0,2.38-.94-1.05-1.81-2.17-2.83-3.11-.82-.76-1.51-1.86-2.87-1.79-1.09.06-2.18.13-3.25.26-.46.06-.3.51-.28.82.03.33.11.66.1.99-.01.61-.07,1.23-.11,1.84-.07,1.09-.17,2.18-.22,3.27-.04,1.07-.06,2.15-.04,3.22.02,1.4.11,2.81.13,4.21,0,.77.59,1.24,1.31.93.61-.27,1.22-.31,1.86-.16.21.05.44.03.66.03.44,0,.67-.27.69-.67.08-1.8.13-3.6.18-5.4.02-.71,0-1.41,0-2.12ZM50.28,53.18c1.05,1.71,2.14,3.45,3.19,5.22.26.44.43.9,1.06.47.06-.04.19,0,.28.02.92.27,1.83.22,2.76.05.72-.13,1.11-.6,1.11-1.28.02-3.05.13-6.1.18-9.15.02-1.11,0-2.23-.1-3.34-.06-.67-.41-.84-1.11-.81-.15,0-.3-.08-.46-.09-.98-.11-1.96-.23-2.95-.3-.39-.03-.62.24-.59.65.11,1.83.23,3.66.35,5.49.03.52.07,1.04.11,1.68-.75-1.08-1.43-2.02-2.07-2.99-.96-1.43-1.88-2.88-2.85-4.3-.13-.19-.39-.38-.6-.4-.63-.05-1.27-.02-1.9-.02-.9,0-1.33.41-1.42,1.33-.13,1.25-.21,2.5-.28,3.75-.11,2.03-.24,4.06-.28,6.09-.02,1.11.08,2.22.18,3.33.05.51.44.65.9.45.18-.08.4-.1.6-.08.89.06,1.78.15,2.67.23.46.04.72-.12.76-.61.15-1.8.31-3.59.47-5.39ZM60.22,49.29s.02,0,.03,0c.11,2.59.21,5.18.33,7.77.03.63.11,1.27.25,1.89.04.19.37.41.58.43.42.03.84-.08,1.27-.11,2.09-.15,4.19-.23,6.28-.47,1.57-.18,2.9-.9,3.88-2.21,1.06-1.41,1.6-2.97,1.68-4.73.13-2.63-.65-4.84-2.77-6.5-1.45-1.13-3.11-1.64-4.94-1.57-1.2.04-2.4.11-3.6.17-.6.03-1.19.06-1.79.13-.74.09-1.22.72-1.21,1.49.02,1.24,0,2.47,0,3.71ZM189.82,56.84c-.14-.33-.24-.67-.43-.97-1.38-2.22-2.58-4.52-3.56-6.95-.64-1.59-1.49-3.09-2.18-4.66-.27-.61-.2-1.43-1.22-1.28-.04,0-.09-.08-.15-.09-.37-.12-.74-.29-1.12-.35-.69-.11-1.46.26-1.69.76-.3.64-.56,1.3-.91,1.91-2.28,3.98-3.92,8.24-5.63,12.47-.19.48-.07.78.35.97,1.2.55,2.4,1.09,3.62,1.58.2.08.64-.04.75-.21.46-.73.88-1.5,1.22-2.29.39-.9.34-.93,1.34-.94.88,0,1.75.06,2.63.03.34-.01.49.05.62.36.22.55.5,1.07.74,1.61.07.16.13.33.15.5.06.57.3.81.85.67.46-.12.89-.36,1.33-.55.74-.32,1.49-.63,2.23-.96.69-.3.76-1,1.06-1.61ZM148.93,54.18c0-1.26-.03-2.42,0-3.57.08-2.17.19-4.33.29-6.5.02-.37-.15-.61-.53-.66-.29-.04-.59-.11-.88-.09-1.23.07-2.46.15-3.69.24-.36.03-.58.22-.58.62.01.78-.01,1.56.04,2.33.14,2.16.35,4.32.46,6.49.09,1.89.08,3.78.1,5.67,0,.59.36.82.9.59.15-.06.32-.06.49-.06.69.03,1.39.11,2.08.1.78-.02,1.57-.21,2.34-.17.88.05,1.75.32,2.64.42,1.12.13,2.25.23,3.37.28.45.02.87-.22.95-.74.18-1.2.35-2.4.49-3.6.07-.58-.29-.92-.89-.92-1.17,0-2.34.06-3.51-.02-1.34-.08-2.67-.27-4.09-.43ZM211.85,52.54c-.13-2.49-.26-4.95-.39-7.42-.04-.69-.47-1.24-1.11-1.25-1.15-.01-2.3.04-3.44.12-.5.04-.76.4-.72.92.03.42.09.83.08,1.25-.06,2.46-.18,4.93-.19,7.39,0,1.51.18,3.01.21,4.52.03,1.22-.02,1.22,1.19,1.22.02,0,.04,0,.06,0,1.18-.04,2.37-.07,3.55-.13.63-.03.9-.54.67-1.12-.1-.25-.2-.52-.19-.77.07-1.59.17-3.18.26-4.74ZM38.41,49.42s-.08,0-.11,0c0,1.16.03,2.31,0,3.46-.07,1.85-.19,3.7-.27,5.55-.03.64.21.8.86.77.93-.04,1.87-.08,2.79,0,.73.06,1.23-.19,1.31-.94.09-.85.2-1.7.19-2.56,0-3.47-.06-6.94-.09-10.41,0-.41-.2-.64-.59-.69-.14-.02-.3.08-.45.08-.84.02-1.7-.07-2.53.06-1.17.18-1.21.31-1.11,1.45,0,.06,0,.12,0,.18,0,1.02,0,2.04,0,3.05ZM225.67,39.35c.46-.06.94-.09,1.39-.19.48-.11.76-.47.7-.96-.05-.48-.35-.79-.86-.82-.25-.01-.51,0-.6,0-.13-.48-.25-.89-.35-1.3-.03-.13-.05-.26-.06-.39-.04-.95-.73-1.47-1.67-1.25-.99.24-1.96.4-2.88.97-.74.45-1.42.82-1.66,1.74-.25-.04-.48-.09-.71-.11-.49-.05-.92.26-1.02.72-.1.46.17.92.64,1.07.19.06.39.08.59.11.61.1,1.27.06,1.62.74.08.15.3.26.49.32.76.26,1.51.55,2.29.74,1.13.29,1.92-.25,2.09-1.39ZM114.05,37.82c-.11.02-.16.04-.22.04-.67.03-1.12.36-1.15.87-.04.54.31.83,1.05.93.95.14,1.91.27,2.85.48.41.09.76.44,1.17.5.7.1,1.54.46,2.08-.22.44-.56.91-.58,1.49-.5.27.04.56.08.83.06.47-.03.85-.21.93-.74.08-.58-.13-.92-.71-1.05-.33-.08-.67-.09-1-.11-.4-.03-.7-.09-.93-.54-.17-.34-.65-.51-.98-.77-.19-.14-.41-.26-.53-.45-.36-.57-.84-1-1.51-.84-.86.21-1.7.56-2.52.91-.57.25-.83.77-.84,1.42ZM49.26,39.48c.32-.36.61-.58.72-.87.05-.13-.26-.59-.37-.58-.64.07-.79-.46-1.13-.78-.23-.22-.56-.42-.86-.47-.51-.07-1.05-.09-1.55,0-.75.14-1.54.27-1.94,1.08-.11.22-.35.36-.5.56-.15.21-.43.51-.37.65.1.23.41.41.66.54.24.11.59.05.78.2,1.02.81,2.19.95,3.43.9.91-.04,1.3-.49,1.14-1.25ZM188.93,38.36c.13.34.19.73.4,1.02.5.69,1.35.8,2.2.37.76-.38,1.39-1.07,2.37-.96.12.01.39-.27.4-.43.01-.21-.14-.45-.26-.65-.07-.13-.23-.22-.31-.36-.23-.38-.36-.84-.66-1.14-.77-.74-2.34-.55-2.69.33-.19.47-.5.74-.9.94-.37.19-.57.42-.54.88Z"/>
      <path class="cls-1" d="M23.41,25.03c.16-1.12.31-2.16.45-3.2.45-3.32.92-6.63,1.95-9.83.15-.46.64-.97,1.1-1.16,1.37-.55,2.79-.98,4.22-1.38,1.29-.36,1.3-.27,1.83,1.22,1.35,3.8,2.58,7.64,3.86,11.46.34,1.02.69,2.05,1.08,3.23.22-1.08.44-2.02.59-2.97.57-3.53,1.12-7.07,1.68-10.6.08-.52.25-1.03.34-1.55.1-.58.54-.73,1-.76.83-.05,1.67-.05,2.5-.01,1.01.05,2.03.13,3.03.27,1.12.16,1.49.78,1.28,2.04-.17,1-.4,1.99-.57,2.99-.54,3.08-1.78,5.94-2.67,8.9-.98,3.25-1.72,6.58-2.48,9.89-.45,1.93-.73,3.9-1.1,5.85-.14.76-.84.53-1.26.55-1.54.1-3.1.02-4.64.11-.87.05-1.22.19-1.63-1.09-1.27-3.94-2.49-7.9-3.88-11.84-.16.83-.32,1.65-.46,2.48-.44,2.48-.87,4.97-1.31,7.45-.14.8-.33,1.6-.49,2.4-.07.36-.23.54-.64.54-2.05.01-4.1.08-6.15.07-.26,0-.66-.33-.75-.59-.65-1.87-1.24-3.75-1.85-5.63-1.4-4.35-2.83-8.69-4.2-13.05-.86-2.73-1.66-5.48-2.49-8.22-.1-.32-.24-.63-.33-.96-.18-.62-.04-.91.58-1.06,1.49-.35,2.98-.71,4.48-.99,1.09-.2,2.21-.27,3.31-.4.63-.07.93.13.97.78.25,3.94,1.13,7.77,2.07,11.59.27,1.11.4,2.25.61,3.47ZM29.42,18.87c.93-.23,1.15.41,1.35.83.55,1.16.95,2.38,1.46,3.56.46,1.07,1.04,2.1,1.47,3.19.48,1.23.84,2.51,1.28,3.75.52,1.45,1.13,2.87,1.62,4.33.25.74.94.93,1.41,1.38.08.08.39,0,.54-.08.81-.48,1.04-1.37.99-2.15-.05-.74.08-1.39.26-2.06.93-3.31,1.88-6.61,2.81-9.92.69-2.45,1.35-4.91,2.02-7.36.11-.38.27-.75.35-1.14.03-.14-.09-.32-.18-.45-.03-.04-.25-.01-.31.05-.25.28-.57.54-.68.87-.57,1.68-1.1,3.37-1.63,5.07-.89,2.87-1.8,5.73-2.63,8.62-.54,1.85-.97,3.74-1.44,5.61-.07,0-.13,0-.2,0-.16-.39-.34-.79-.49-1.18-.36-.94-.65-1.9-1.06-2.81-.86-1.9-1.79-3.76-2.66-5.66-.61-1.32-.71-2.84-1.56-4.08-.13-.19-.27-.39-.34-.61-.46-1.35-1.04-2.63-1.93-3.76-.23-.3-.75-.37-.91-.09-.19.33-.32.7-.4,1.07-.09.42-.07.88-.16,1.3-.4,1.75-.76,3.51-1.25,5.24-.38,1.33-.94,2.6-1.4,3.9-.25.71-.45,1.44-.67,2.16-.43,1.44-.85,2.87-1.27,4.31-.07,0-.14-.02-.2-.03-.64-1.34-1.28-2.68-1.94-4-.17-.33-.56-.58-.64-.92-.61-2.41-1.53-4.73-1.97-7.21-.42-2.32-1.38-4.53-2.07-6.8-.16-.53-.47-.74-.96-.62-.51.13-.58.62-.49,1.02.17.79.39,1.57.66,2.33.28.8.73,1.55.93,2.36.55,2.2.97,4.44,1.5,6.64.24.98.48,2,.97,2.86.54.94.81,1.94,1.16,2.93.33.95.51,1.95.88,2.88.19.49.61.92,1.01,1.28.5.44,1.09.3,1.32-.3.68-1.76,1.34-3.52,1.98-5.3.15-.42.11-.9.26-1.32.61-1.64,1.26-3.26,1.89-4.89.35-.91.74-1.8,1.01-2.73.2-.68.23-1.4.33-2.06Z"/>
      <path class="cls-1" d="M142.36,25.81c-.61,3.09-1.2,6.23-1.85,9.35-.23,1.12-.61,2.2-.92,3.3-.13.46-.18.94-.38,1.37-.09.2-.44.41-.67.42-2.07.04-4.15.03-6.22.03-.54,0-1.08-.01-1.62-.01-.57,0-.87-.28-.97-.84-.29-1.66-.59-3.32-.92-4.97-.44-2.19-.92-4.37-1.36-6.56-.88-4.36-1.74-8.73-2.6-13.1-.16-.83-.32-1.67-.48-2.5-.18-.99.27-1.53,1.29-1.64,1.64-.17,3.26-.03,4.88.19,1.07.14,1.17.22,1.39,1.3.62,3.14,1.21,6.29,1.81,9.43.26,1.34.51,2.68.85,4.01.15-.86.26-1.72.45-2.57.45-2.05.9-4.1,1.39-6.13.32-1.31.72-2.59,1.06-3.89.21-.8.73-1.36,1.5-1.56,1.11-.28,2.24-.5,3.38-.65.61-.08,1.24.05,1.86.08.63.03.94.42,1.13.97,1.16,3.42,2.33,6.83,3.5,10.24.17.48.34.97.6,1.45.07-.52.13-1.04.22-1.55.45-2.8.91-5.59,1.38-8.39.11-.64.28-1.27.43-1.91.1-.44.32-.76.84-.74,1.01.03,2.04,0,3.04.1,1.29.13,2.56.33,3.84.55.76.13.93.43.79,1.17-.55,2.78-1.19,5.53-2,8.26-1.01,3.37-1.88,6.79-2.73,10.2-.43,1.73-.67,3.51-1.06,5.26-.18.81-.48,1.59-.78,2.36-.42,1.1-1.28,1.56-2.42,1.4-1.28-.17-2.57-.32-3.86-.48-.96-.12-1.15-.21-1.33-1.41-.35-2.3-1.18-4.45-1.8-6.67-.53-1.9-1.03-3.81-1.55-5.71-.02-.09-.1-.16-.11-.17ZM149.9,31.58c-.11-.23-.25-.44-.33-.67-.37-.99-.72-2-1.08-2.99-.71-1.93-1.44-3.85-2.16-5.77-.37-.98-.69-1.98-1.08-2.95-.54-1.32-1.07-2.64-1.72-3.9-.19-.38-.72-.69-1.15-.79-.22-.05-.57.42-.84.69-.11.11-.16.27-.22.42-.55,1.55-1.1,3.09-1.65,4.64-.1.29-.26.56-.36.85-.18.53-.57,1.15-.43,1.6.16.55.01.93-.15,1.34-.45,1.14-1,2.24-1.44,3.39-.42,1.1-.75,2.24-1.13,3.36-.38,1.11-.84,2.17-2.05,2.7-.9-1.57-1.57-3.25-2.03-5-.61-2.3-1.15-4.62-1.68-6.93-.32-1.41-.55-2.83-.87-4.24-.24-1.05-.54-2.09-.85-3.12-.04-.13-.31-.2-.48-.29-.08.15-.22.3-.22.44,0,.53.1,1.06.1,1.59,0,1.9.34,3.75.73,5.6.22,1.05.36,2.13.64,3.16.39,1.44.91,2.85,1.33,4.28.2.69.28,1.41.46,2.11.37,1.35.75,2.69,1.18,4.03.17.54.45,1.04.7,1.55.04.08.16.13.25.15.39.08.78.16,1.17.21.08.01.2-.05.24-.12.34-.57.66-1.14.99-1.72.12-.2.17-.48.34-.61.54-.39.67-.97.87-1.55.31-.9.69-1.78,1.05-2.67.28-.68.61-1.35.83-2.05.44-1.39.76-2.82,1.22-4.2.71-2.09,1.5-4.16,2.27-6.23.05-.13.28-.29.38-.27.14.04.29.23.34.38.48,1.57.59,3.24,1.43,4.7.14.25.29.51.38.78.6,1.83,1.19,3.67,1.79,5.5.22.68.57,1.33.7,2.03.24,1.19.45,2.37,1.22,3.37.12.16.14.41.26.57.18.23.38.53.63.6.68.2,1.2-.03,1.45-.71.51-1.37,1-2.75,1.36-4.16.27-1.03.59-2.05.78-3.11.27-1.51.86-2.96,1.28-4.45.11-.39.05-.83.14-1.23.4-1.72.82-3.43,1.24-5.14.15-.62.3-1.23.45-1.85-.06-.06-.13-.11-.19-.17-.56.31-1.11.63-1.75.99-.02.08-.08.26-.12.45-.22.95-.38,1.91-.66,2.84-.46,1.54-1.04,3.05-1.48,4.6-.45,1.59-.8,3.2-1.17,4.81-.06.27,0,.57.05.85.15.7-.28,1.8-.97,2.3Z"/>
      <path class="cls-1" d="M212.6,19.67c-.68-.44-1.33-.86-1.98-1.29-1.68-1.11-3.54-1.65-5.55-1.47-.83.07-1.65.4-2.55.63,1.26,1.23,2.81,1.61,4.3,2.1,2.06.68,4.15,1.29,6.18,2.05,2.3.85,3.85,2.56,4.91,4.71.84,1.71.89,3.55.34,5.31-.88,2.86-2.69,5.22-4.93,7.1-2.65,2.22-5.84,2.67-9.18,1.75-1.35-.38-2.7-.77-4.06-1.15-2.48-.68-4.62-1.9-6.27-3.91-.65-.8-1.35-1.56-1.97-2.39-.15-.2-.15-.65-.02-.87.28-.47.61-.96,1.05-1.26,1.11-.75,2.29-1.41,3.44-2.1.34-.2.69-.4.95-.55,1.42.98,2.76,2,4.2,2.87,1.57.95,3.36,1.26,5.16,1.08.65-.06,1.35-.46,1.87-.9.77-.66.65-1.51-.25-1.99-.7-.38-1.48-.66-2.25-.89-1.38-.41-2.79-.76-4.19-1.12-2.36-.62-4.39-1.9-6.39-3.24-.76-.51-1.48-1.09-2.16-1.7-1.14-1.02-1.65-2.34-1.35-3.82.39-1.96.81-3.94,2.01-5.6.49-.68,1.11-1.33,1.82-1.77,1.79-1.12,3.73-1.97,5.85-2.16,1.93-.18,3.88-.19,5.81.2,1.29.25,2.62.28,3.9.55,1.12.24,2.2.65,3.28,1.04.94.34,1.54,1.11,2.17,1.83.28.31.12.63-.07.92-1.2,1.77-2.41,3.54-3.62,5.31-.14.21-.28.43-.47.73ZM207.83,36.99c.58-.13,1.37-.25,2.12-.48,1.79-.56,3.1-1.6,4.12-3.27,1.47-2.4.36-6.35-1.69-7.56-1.6-.94-3.22-1.83-4.86-2.7-.68-.36-1.4-.68-2.14-.9-1.4-.4-2.86-.62-4.22-1.1-1.2-.42-2.72-.64-2.82-2.41,0-.02-.03-.04-.03-.05.1-.67.02-1.45.34-1.99.49-.82,1.24-1.5,2.23-1.81,1.56-.5,3.08-1.07,4.78-.97,1.49.08,2.99-.08,4.43.41.91.31,1.82.38,2.76.32.26-.02.5-.19.75-.3-.14-.29-.2-.71-.42-.85-.68-.4-1.39-.85-2.15-1-1.22-.25-2.49-.29-3.73-.38-.77-.06-1.54-.05-2.32-.09-.58-.03-1.19-.23-1.72-.1-2.05.49-3.83,1.55-5.33,3.01-1.32,1.28-1.7,2.93-1.3,4.69.28,1.24,1.3,1.77,2.41,2.24,3.85,1.65,7.68,3.35,11.49,5.09,1.98.9,2.68,3.87,1.31,5.58-1.49,1.86-3.47,2.92-5.87,2.94-2.94.02-5.62-.93-8.07-2.54-.35-.23-.69-.35-.96-.03-.35.42-.94.75-.81,1.44.02.12.19.26.32.31,1.33.57,2.63,1.23,4.01,1.64,1.33.39,2.66.85,4.13.68.99-.12,2.02.1,3.27.18Z"/>
      <path class="cls-1" d="M171.54,18.73v2.42c3.68.25,7.35.68,11.16.17.1.95.27,1.86.29,2.78.03,1.49,0,2.99-.11,4.48-.05.65-.7.52-1.14.5-1.11-.04-2.22-.2-3.33-.18-1.97.03-3.94.15-5.92.22-.57.02-.88.2-.88.88,0,.74-.17,1.49-.27,2.22.72,0,1.39.02,2.05,0,3.01-.11,6.02-.25,9.03-.33,1.75-.04,3.42.31,4.93,1.25.15.09.33.28.33.42-.04,1.93-.1,3.85-.17,5.87-1,.08-1.84.19-2.69.21-5.01.1-10.03.19-15.04.27-1.54.02-3.08,0-4.62-.01-.49,0-.99.06-1.45-.04-.24-.05-.57-.4-.59-.63-.15-2-.28-4,.02-6.02.15-.98.16-1.99.11-2.98-.13-2.4.14-4.77.29-7.16.19-3.12.19-6.25.26-9.37.01-.62,0-1.24-.01-1.86,0-.35.12-.56.51-.58,2.51-.11,5.01-.34,7.52-.33,3.25.01,6.49.25,9.74.32,1.57.03,3.15-.09,4.73-.14.12,0,.23.02.43.04,0,.3,0,.6,0,.89-.04,1.71-.1,3.42-.11,5.14-.01,1.49-.72,1.42-1.77,1.37-2.28-.11-4.56-.23-6.84-.25-1.33,0-2.65.18-3.98.27-.81.06-1.63.11-2.51.17ZM165.76,37.22c1.16,0,2.37.05,3.57-.01,1.98-.1,3.95-.28,5.93-.43.59-.04,1.18-.07,1.77-.13,1.57-.15,3.13-.32,4.7-.46.42-.04.85.05,1.25-.04.24-.05.42-.34.62-.52-.2-.21-.39-.45-.62-.63-.09-.07-.27-.02-.41-.01-1.65.12-3.31.26-4.96.35-1.18.06-2.37.03-3.56.07-1.85.06-3.69.15-5.54.23-.55.02-.83-.19-.81-.75.06-1.64.13-3.29.23-4.93.08-1.25.23-2.5.33-3.75.03-.4.11-.65.62-.58.47.06.96-.01,1.43-.02,1.08-.02,2.15-.11,3.22-.06,1.58.09,3.15.44,4.71-.04.26-.08.46-.36.68-.55-.22-.25-.4-.65-.67-.72-.67-.17-1.37-.23-2.07-.27-1.89-.1-3.78-.18-5.68-.25-.68-.03-1.37,0-2.06,0,.02-.31.04-.56.04-.82-.05-2,.04-3.99.39-5.95.05-.3.21-.75.44-.84,1.01-.39,2.04-.78,3.1-.96.96-.16,1.97-.03,2.96-.05,1.11-.02,2.22-.08,3.33-.11.29,0,.58.08.87.09.98.02,1.97-.03,2.95.03.61.04,1.03-.18,1.1-.79.07-.6-.38-.7-.81-.72-2.11-.11-4.19-.54-6.34-.2-1.66.26-3.36.23-5.05.34-1.45.09-2.9.15-4.26.79-.3.14-.48.27-.5.64-.1,1.76-.18,3.52-.37,5.27-.14,1.34-.44,2.66-.07,4.01.02.06,0,.12,0,.18-.08,1.47-.16,2.94-.24,4.41,0,.14.05.31-.02.41-.42.66-.19,1.39-.24,2.09-.02.26,0,.52,0,.78,0,1.59,0,3.17,0,4.91Z"/>
      <path class="cls-1" d="M238.96,18.46c0,.97-.05,1.91,0,2.84.12,1.97.26,3.93.45,5.89.24,2.59.58,5.18.8,7.77.1,1.25.03,2.51.03,3.77,0,.59-.5.67-.88.67-2.58-.02-5.17.04-7.69-.62-.83-.22-.87-.34-.9-1.21-.14-3.71-.31-7.41-.45-11.12-.09-2.29-.15-4.58-.22-6.88,0-.15-.04-.3-.05-.44-2.6.11-5.14-.05-7.67-.41-.75-.11-1.51-.11-2.27-.15-.49-.02-.7-.27-.73-.75-.11-2.21-.23-4.42-.37-6.62-.03-.44.07-.69.55-.7.3-.01.59-.07.89-.07,3.91-.08,7.81-.22,11.72-.21,3.01,0,6.02.16,9.03.3,1.43.07,2.85.29,4.27.37.63.03.79.48.97.88.71,1.57,1.22,3.2,1.33,4.93.04.61.1,1.26-.42,1.73-.17.15-.45.27-.68.26-2.31-.06-4.62-.14-6.93-.22-.24,0-.47,0-.77,0ZM226.1,14.9s0-.08.01-.13c.87.07,1.75.13,2.62.22.59.06,1.18.14,1.76.25.28.06.53.28.8.32.55.08,1.11.11,1.67.13.37.01.54.15.54.53,0,.9.05,1.79.06,2.69.04,2.72.1,5.45.09,8.17,0,1.11-.17,2.23-.23,3.34-.03.46.03.93.01,1.39-.03.97-.1,1.94-.1,2.91,0,.2.18.43.33.6.26.28.57.52.84.79.23.22.41.5.65.7.32.26.64.12.65-.27.05-1.03.13-2.06.11-3.09-.02-1.16-.21-2.33-.21-3.49-.01-1.81.07-3.62.1-5.43,0-.33-.08-.66-.09-.99,0-.47.05-.94.03-1.41-.02-.81-.09-1.63-.11-2.44-.03-.97,0-1.95-.05-2.92-.04-.7,0-.8.7-.86.13-.01.26-.08.4-.11.5-.12,1-.36,1.49-.33,1.33.08,2.65.24,3.96.45,1.14.18,1.83,0,2.2-.75.28-.57-.04-1.18-.69-1.28-.83-.13-1.67-.24-2.5-.37-.91-.15-1.82-.41-2.74-.45-3.39-.13-6.78-.23-10.18-.27-1.55-.02-3.1.15-4.66.22-.72.03-1,.58-1.31,1.08-.08.13,0,.38.07.54.03.06.27.02.42.01.33-.01.67-.08,1-.05.79.07,1.57.18,2.35.27Z"/>
      <path class="cls-1" d="M73.19,30.8c1.29,0,2.54-.04,3.8,0,2.85.11,5.69.25,8.48.9.1.02.2.03.29.04,1.12.08,1.16.14,1.2,1.28.05,1.53.14,3.06.2,4.6.02.53,0,1.06,0,1.66-.44,0-.77,0-1.11,0-6.01.03-12.02.06-18.03.08-.68,0-1.36-.08-2.03-.06-.41,0-.6-.14-.62-.52-.05-.95-.11-1.9-.14-2.85-.12-3.74-.3-7.49-.32-11.23-.01-2.62.19-5.25.31-7.87.08-1.73.2-3.46.28-5.18.05-.96.08-.96,1.02-.88,1.07.09,2.15.06,3.23.15,1.07.09,2.13.26,3.19.4.63.08.8.49.77,1.05-.07,1.27-.14,2.54-.2,3.82-.09,1.89-.21,3.78-.25,5.67-.06,2.85-.07,5.7-.1,8.55,0,.11.01.23.02.4ZM70.6,33.68c-.17-.49-.5-1.02-.53-1.57-.13-2.31-.08-4.63-.21-6.95-.16-2.81.06-5.65.22-8.47.05-.92,0-1.91.53-2.77.08-.13-.12-.63-.29-.7-.77-.31-1.15-.06-1.55.69-.53.98-.46,2.05-.47,3.09-.03,3.17,0,6.34.06,9.51.03,1.77.17,3.54.24,5.3.04,1.03.03,2.06.01,3.09-.02.78.26,1.22,1.03,1.27,1.4.09,2.81.14,4.22.13,3.27-.02,6.55-.12,9.8-.5.27-.03.54-.41.72-.69.06-.09-.1-.46-.24-.52-.5-.23-1.02-.5-1.55-.55-1.86-.17-3.73-.31-5.6-.36-2.11-.06-4.23-.01-6.39-.01Z"/>
      <path class="cls-1" d="M89.54,35.09c.1-2.41.28-4.82.28-7.22,0-2.77-.19-5.53-.28-8.3-.07-2.29-.11-4.58-.16-6.87,0-.34,0-.68-.01-1.02-.02-.82.04-.82.89-.91,1.16-.12,2.3-.4,3.46-.5.95-.08,1.91,0,2.86,0,.45,0,.93.02,1.36-.1,2.05-.56,4.06-.27,6.09.17,3.67.8,6.49,2.8,8.8,5.7,1.93,2.42,2.84,5.2,3.12,8.21.13,1.38-.06,2.74-.82,3.98-.84,1.37-1.49,2.86-2.45,4.13-2.75,3.62-6.3,6.04-10.87,6.85-2.13.38-4.22.24-6.34.02-1.13-.12-2.28.07-3.43.12-.46.02-.91.06-1.37.05-.65-.02-1.06-.52-1.07-1.31-.01-1,0-2,0-2.99-.02,0-.04,0-.05,0ZM92.71,37.07c.73-.06,1.39-.13,2.05-.17,1.49-.08,2.99.19,4.44-.45.74-.33,1.59-.38,2.37-.63,1.7-.53,3.39-1.07,4.84-2.17,1.1-.83,2.34-1.51,3.07-2.76.21-.37.56-.66.74-1.04.67-1.46,1.37-2.91,1.91-4.41.29-.81.45-1.76.34-2.6-.11-.85-.55-1.7-1-2.47-.66-1.13-1.4-2.23-2.22-3.26-.53-.67-1.16-1.33-1.89-1.73-1.26-.7-2.64-1.15-3.94-1.77-1.59-.76-3.24-.74-4.92-.56-.73.08-1.45.17-2.18.26-.65.08-1.32.09-1.93.29-.76.25-1.53.57-1.47,1.64.04.69-.06,1.39-.11,2.08-.15,2.14-.35,4.28-.43,6.43-.08,2.1-.05,4.21-.02,6.32.04,2.17.15,4.33.24,6.5,0,.19.08.37.11.52Z"/>
      <path class="cls-1" d="M97.47,49.73c.38-1.07.73-2.07,1.1-3.06.23-.62.48-1.24.72-1.86.02-.05.06-.13.04-.16-.37-.7.17-.89.63-.94,1.02-.12,2.06-.17,3.09-.19.4,0,.46.33.45.7,0,.4-.01.82.11,1.19.35,1.08.77,2.15,1.18,3.28.13-1.16.25-2.27.37-3.37.1-.87.52-1.13,1.38-1.04,1.11.12,2.23.14,3.34.18.71.02,1.23.64,1.07,1.33-.76,3.17-1.52,6.35-2.3,9.52-.15.6-.38,1.18-.52,1.78-.2.87-.73,1.42-1.58,1.57-1,.17-2.01.28-3.02.35-.6.04-.74-.19-.65-.81.02-.15-.01-.31-.06-.45-.49-1.4-.98-2.79-1.47-4.19-.4,1.12-.8,2.29-1.22,3.45-.18.5-.39,1-.64,1.47-.09.17-.3.35-.48.38-.96.14-1.93.23-2.89.36-.47.07-.94.21-1.44.33-.22-1.24-.37-2.39-.64-3.5-.79-3.19-1.65-6.36-2.42-9.55-.18-.73-.14-1.51-.13-2.27,0-.18.29-.44.5-.51.51-.16,1.04-.29,1.57-.32.83-.05,1.66-.04,2.48.02.19.01.47.32.51.53.16.85.22,1.72.35,2.58.16,1.05.36,2.08.56,3.22Z"/>
      <path class="cls-1" d="M31.45,49.81c.17-1.39.33-2.71.49-4.03.02-.14,0-.28-.02-.41-.14-.73.01-1.05.75-1.01,1.39.07,2.78.24,4.15.47.41.07.71.47.58,1.02-.48,1.98-.94,3.96-1.42,5.94-.52,2.12-1.04,4.23-1.59,6.34-.11.43-.27.86-.47,1.26-.07.14-.32.26-.48.26-.83-.01-1.67-.07-2.5-.11-.13,0-.27-.06-.39-.03-.49.13-.69-.15-.82-.56-.49-1.61-.99-3.21-1.52-4.92-.14.48-.23.91-.39,1.31-.38.99-.79,1.97-1.18,2.96-.07.16-.18.34-.15.5.09.65-.29.76-.79.72-.85-.07-1.7-.15-2.55-.24-.06,0-.12-.09-.16-.07-1.04.43-1.07-.29-1.25-1-.42-1.58-.98-3.13-1.39-4.71-.62-2.4-1.15-4.82-1.73-7.23-.38-1.6.08-2.32,1.72-2.52.68-.08,1.38-.03,2.08-.02.58,0,.85.33.97.87.32,1.57.66,3.14.99,4.72.14-.52.31-1.07.43-1.63.19-.85.34-1.71.54-2.56.05-.2.2-.5.37-.54,1.03-.28,2.06-.53,3.11-.72.5-.09.84.17.82.75,0,.08,0,.16.03.23.58,1.62,1.15,3.24,1.77,4.97Z"/>
      <path class="cls-1" d="M51.65,39.42c-.06-1.03-.16-2.02-.18-3.01-.13-6.62-.24-13.24-.37-19.86-.03-1.83-.1-3.66-.13-5.49-.02-.92,0-1.04.93-1.06,2.05-.06,4.1-.04,6.15.02.62.02,1.25.19,1.84.4.2.07.42.49.4.73-.1,1.21-.31,2.4-.41,3.61-.23,2.89-.44,5.79-.6,8.69-.23,4.18-.53,8.35-.37,12.54.03.95.15,1.9.23,2.85.04.49-.14.69-.69.67-1.95-.06-3.9-.07-5.85-.1-.3,0-.59,0-.95,0ZM55.88,31.81s-.07,0-.1,0c0-1.69-.03-3.39,0-5.08.04-1.55.18-3.09.21-4.64.03-1.49-.02-2.98-.04-4.47-.02-1.55-.04-3.1-.07-4.64,0-.35-.15-.71-.54-.62-.34.08-.91,0-.89.65.03.67.06,1.35.06,2.02,0,1.23,0,2.46-.02,3.7-.04,1.69-.13,3.37-.14,5.06,0,1.73.19,3.47.06,5.19-.18,2.21-.05,4.39.18,6.57.03.28.46.51.7.77.19-.25.54-.49.55-.75.06-1.25.03-2.5.03-3.75Z"/>
      <path class="cls-1" d="M240.82,57.93c-1.19.56-2.41,1.17-3.66,1.69-1.72.7-3.31.25-4.82-.68-1.8-1.11-2.98-2.69-3.33-4.78-.27-1.6-.05-3.21.56-4.72.65-1.61,1.45-3.13,2.69-4.39,1.12-1.15,2.51-1.66,4.03-1.9,2.61-.41,4.89.41,6.93,2,.59.46.57.96.01,1.48-.5.46-.95.97-1.41,1.46-.33.35-.61.51-1.11.14-1.17-.86-4.3-.76-5.23.23-1.61,1.71-2.1,3.99.33,5.7.96.67,1.82.76,2.76.05.26-.2.55-.38.94-.65-.73.04-1.32.09-1.91.11-.77.02-1.36-.63-1.25-1.39.13-.92.27-1.84.43-2.75.1-.59.58-.74,1.06-.36.1.08.22.2.34.21,1.07.09,2.14.19,3.22.23.23,0,.51-.18.69-.36.55-.52.95-.53,1.48,0,.76.74,1.51,1.51,1.65,2.62.05.41-.16.84-.16,1.26-.01,1.89.01,3.77,0,5.66,0,.43-.32.63-.72.64-.61.02-1.23.03-1.84.01-1.17-.03-1.61-.49-1.67-1.5Z"/>
      <path class="cls-1" d="M163.63,53.77v.61c.92,0,1.82-.05,2.71.01,1.8.12,3.6.31,5.4.46.49.04.74.28.74.74.01.99.01,1.97,0,2.96,0,.11-.14.29-.25.32-.36.11-.73.22-1.09.22-2.27.04-4.55.06-6.82.07-1.38,0-2.76-.09-4.13,0-1.09.07-1.86-.79-1.84-1.81.04-2.23.12-4.45.16-6.68.04-2.03.06-4.06.07-6.09,0-.61.57-1.34,1.21-1.33,2.65,0,5.3.04,7.95.06.85,0,1.71.04,2.56.04.45,0,.68.22.93.59.78,1.2.51,2.53.54,3.82.01.5-.32.76-.81.73-1.39-.06-2.78-.17-4.17-.21-.99-.03-1.99,0-3.01,0v.7c1.31.08,2.61.16,3.92.25.42.03.83.1,1.25.11.22,0,.46-.05.66-.14.44-.19.81-.09.95.39.33,1.09.4,2.19-.21,3.23-.05.08-.14.16-.16.25-.18,1.01-.9,1.02-1.69.97-1.59-.1-3.18-.18-4.84-.27Z"/>
      <path class="cls-1" d="M199.34,49.74c0-1.34.04-2.66-.02-3.97-.04-.79.44-1.26.95-1.58,1.06-.66,2.24-.62,3.35-.04.21.11.38.52.39.79.02.85-.08,1.71-.07,2.57.03,2.15.13,4.3.14,6.46,0,1.43-.1,2.87-.19,4.3-.06.95-.41,1.28-1.42,1.26-.97-.02-1.94-.11-2.9-.25-.54-.08-.8-.56-1.1-1-1.18-1.71-2.39-3.41-3.6-5.1-.03-.04-.08-.06-.17-.12,0,.51,0,.98,0,1.45-.01,1.21.02,2.43-.06,3.63-.06.91-.68,1.37-1.58,1.28-.73-.07-1.46-.15-2.19-.24-.77-.09-.88-.23-.89-1.03-.05-3.11-.11-6.22-.17-9.33-.02-1.08-.04-2.15-.07-3.23,0-.27-.06-.55-.12-.82-.12-.54.07-.9.62-.92,1.17-.04,2.34,0,3.51,0,.09,0,.22.12.28.08.85-.49.94.2,1.29.71.8,1.18,1.69,2.3,2.57,3.42.46.59.98,1.13,1.45,1.67Z"/>
      <path class="cls-1" d="M126.58,50.53c.1-.7.19-1.65.39-2.59.33-1.6,1.39-2.71,2.68-3.59,1.23-.83,2.51-1.59,4.01-1.84,2.39-.39,4.62.1,6.76,1.14.58.28.95.87.87,1.42-.05.41-.13.82-.23,1.22-.34,1.26-.68,2.52-1.51,3.57-.33.42-.74.38-1-.09-.41-.76-1.03-1.16-1.92-1.17-1.42-.02-2.72.22-3.71,1.37-1.07,1.25-.79,3.11.64,3.92,1.44.81,2.97,1,4.53.46.66-.23,1.27-.63,1.89-.99.31-.18.58-.27.86,0,.81.81,1.63,1.62,2.41,2.45.08.09.03.38-.05.51-1.36,2.29-3.43,3.41-6.05,3.68-1.25.13-2.51.48-3.72-.02-1.64-.68-3.36-1.29-4.8-2.28-.96-.66-1.53-1.93-1.7-3.19-.17-1.24-.22-2.5-.35-4Z"/>
      <path class="cls-1" d="M91.69,52.47c.03,2.97-1.11,4.93-3.4,6.25-1.02.59-2.01,1.25-3.21,1.33-2.65.19-5.11-.31-6.94-2.41-.75-.86-1.16-1.96-1.35-3.12-.17-1.05-.36-2.11-.54-3.16-.14-.83-.16-1.65.18-2.45.26-.6.43-1.23.69-1.83.68-1.58,1.89-2.68,3.48-3.2,1.36-.44,2.82-.6,4.23-.87.12-.02.27.07.4.1,3.86.89,5.44,3.71,6.16,7.25.16.8.23,1.61.3,2.1ZM86.24,51.49c0-.18.01-.36,0-.54-.06-.86-1.15-2.47-1.8-2.67-1.55-.48-3.64,1.34-3.44,2.96.16,1.29.78,2.33,1.74,3.15.24.2.67.35.96.29,1.56-.32,2.55-1.61,2.53-3.2Z"/>
      <path class="cls-1" d="M218.44,51.6c0,.71.02,1.41,0,2.12-.05,1.8-.11,3.6-.18,5.4-.02.39-.25.66-.69.67-.22,0-.45.02-.66-.03-.64-.15-1.25-.1-1.86.16-.72.31-1.3-.15-1.31-.93-.02-1.4-.11-2.81-.13-4.21-.02-1.07,0-2.15.04-3.22.04-1.09.14-2.18.22-3.27.04-.61.1-1.23.11-1.84,0-.33-.08-.66-.1-.99-.03-.31-.18-.76.28-.82,1.08-.14,2.17-.2,3.25-.26,1.36-.08,2.04,1.03,2.87,1.79,1.03.94,1.89,2.06,2.83,3.11,0-.77-.02-1.58,0-2.38.02-.77.08-1.55.12-2.32.02-.38.24-.57.6-.6.72-.05,1.47.14,2.16-.25.11-.06.33.06.5.1.18.04.37.13.55.12.6-.05.86.16.87.74.02,1.03.07,2.06.08,3.09,0,.71-.09,1.43-.07,2.14.02,1.11.12,2.21.13,3.32,0,1.51-.04,3.02-.06,4.54,0,.15-.03.32.01.46.17.54.03.99-.49,1.03-1.04.09-2.09.04-3.14.03-.11,0-.31-.13-.33-.22-.21-.97-1.02-1.52-1.55-2.26-1.26-1.79-2.6-3.52-3.91-5.27-.04.02-.09.05-.13.07Z"/>
      <path class="cls-1" d="M50.28,53.18c-.16,1.8-.32,3.59-.47,5.39-.04.48-.3.65-.76.61-.89-.08-1.78-.17-2.67-.23-.2-.01-.42,0-.6.08-.46.2-.86.06-.9-.45-.1-1.11-.2-2.22-.18-3.33.04-2.03.17-4.06.28-6.09.07-1.25.15-2.51.28-3.75.1-.91.52-1.33,1.42-1.33.64,0,1.27-.03,1.9.02.21.02.47.21.6.4.96,1.43,1.89,2.88,2.85,4.3.65.96,1.32,1.91,2.07,2.99-.04-.64-.08-1.16-.11-1.68-.12-1.83-.24-3.66-.35-5.49-.03-.41.2-.68.59-.65.99.07,1.97.19,2.95.3.15.02.31.1.46.09.7-.03,1.04.14,1.11.81.1,1.11.11,2.22.1,3.34-.05,3.05-.16,6.1-.18,9.15,0,.68-.39,1.15-1.11,1.28-.93.17-1.85.22-2.76-.05-.09-.03-.22-.06-.28-.02-.63.43-.79-.03-1.06-.47-1.05-1.76-2.14-3.51-3.19-5.22Z"/>
      <path class="cls-1" d="M60.22,49.29c0-1.24.01-2.47,0-3.71-.01-.77.46-1.4,1.21-1.49.59-.07,1.19-.09,1.79-.13,1.2-.06,2.4-.12,3.6-.17,1.83-.07,3.49.43,4.94,1.57,2.12,1.66,2.89,3.87,2.77,6.5-.08,1.76-.63,3.32-1.68,4.73-.98,1.3-2.31,2.03-3.88,2.21-2.08.23-4.18.31-6.28.47-.42.03-.85.15-1.27.11-.21-.02-.53-.24-.58-.43-.14-.62-.22-1.25-.25-1.89-.12-2.59-.22-5.18-.33-7.77-.01,0-.02,0-.03,0ZM66.04,54.86c1.19.07,2.27-.47,3-1.49.81-1.13.92-2.42.23-3.71-.84-1.56-2.28-1.8-3.79-1.85.19,2.34.37,4.65.56,7.05Z"/>
      <path class="cls-1" d="M189.82,56.84c-.3.61-.37,1.31-1.06,1.61-.74.33-1.48.64-2.23.96-.44.19-.87.43-1.33.55-.55.14-.79-.09-.85-.67-.02-.17-.07-.35-.15-.5-.24-.54-.53-1.06-.74-1.61-.13-.32-.28-.38-.62-.36-.87.03-1.75-.03-2.63-.03-1,0-.96.04-1.34.94-.34.79-.76,1.56-1.22,2.29-.1.17-.55.29-.75.21-1.22-.49-2.42-1.04-3.62-1.58-.42-.19-.55-.49-.35-.97,1.71-4.23,3.35-8.5,5.63-12.47.35-.61.61-1.27.91-1.91.23-.49,1-.87,1.69-.76.38.06.75.22,1.12.35.05.02.1.1.15.09,1.03-.15.96.67,1.22,1.28.68,1.57,1.54,3.07,2.18,4.66.98,2.43,2.18,4.73,3.56,6.95.18.29.28.64.43.97ZM181.39,50.08c-.3.87-.55,1.6-.82,2.4h1.83c-.31-.75-.63-1.5-1.01-2.4Z"/>
      <path class="cls-1" d="M148.93,54.18c1.41.15,2.75.35,4.09.43,1.16.07,2.34.01,3.51.02.6,0,.95.34.89.92-.14,1.2-.31,2.41-.49,3.6-.08.52-.51.75-.95.74-1.13-.04-2.25-.14-3.37-.28-.88-.1-1.75-.37-2.64-.42-.77-.04-1.56.15-2.34.17-.69.02-1.38-.07-2.08-.1-.16,0-.34,0-.49.06-.54.22-.89,0-.9-.59-.03-1.89-.01-3.78-.1-5.67-.1-2.16-.32-4.32-.46-6.49-.05-.78-.03-1.56-.04-2.33,0-.4.21-.59.58-.62,1.23-.09,2.46-.18,3.69-.24.29-.02.59.05.88.09.38.05.55.28.53.66-.1,2.17-.22,4.33-.29,6.5-.04,1.15,0,2.3,0,3.57Z"/>
      <path class="cls-1" d="M211.85,52.54c-.09,1.57-.19,3.16-.26,4.74-.01.26.09.53.19.77.23.58-.05,1.09-.67,1.12-1.18.06-2.37.09-3.55.13-.02,0-.04,0-.06,0-1.21,0-1.16,0-1.19-1.22-.03-1.51-.22-3.01-.21-4.52.01-2.46.13-4.93.19-7.39,0-.41-.05-.83-.08-1.25-.04-.53.22-.88.72-.92,1.14-.09,2.29-.14,3.44-.12.64,0,1.07.56,1.11,1.25.13,2.46.26,4.93.39,7.42Z"/>
      <path class="cls-1" d="M38.41,49.42c0-1.02,0-2.04,0-3.05,0-.06,0-.12,0-.18-.1-1.14-.06-1.27,1.11-1.45.83-.13,1.69-.04,2.53-.06.15,0,.31-.1.45-.08.39.05.58.28.59.69.03,3.47.08,6.94.09,10.41,0,.85-.1,1.71-.19,2.56-.08.75-.58,1-1.31.94-.92-.08-1.86-.04-2.79,0-.64.03-.89-.12-.86-.77.08-1.85.21-3.7.27-5.55.04-1.15,0-2.31,0-3.46.04,0,.08,0,.11,0Z"/>
      <path class="cls-1" d="M225.67,39.35c-.18,1.14-.96,1.68-2.09,1.39-.78-.2-1.53-.48-2.29-.74-.18-.06-.41-.17-.49-.32-.36-.69-1.02-.65-1.62-.74-.2-.03-.4-.05-.59-.11-.47-.15-.74-.61-.64-1.07.1-.46.53-.77,1.02-.72.23.02.46.07.71.11.24-.92.92-1.29,1.66-1.74.92-.57,1.89-.73,2.88-.97.94-.22,1.63.3,1.67,1.25,0,.13.02.27.06.39.11.41.22.82.35,1.3.09,0,.35-.01.6,0,.51.03.81.34.86.82.05.49-.23.85-.7.96-.46.11-.93.13-1.39.19Z"/>
      <path class="cls-1" d="M114.05,37.82c.02-.66.27-1.18.84-1.42.82-.35,1.66-.7,2.52-.91.67-.16,1.15.27,1.51.84.12.19.35.31.53.45.34.25.82.43.98.77.22.45.53.51.93.54.34.02.68.03,1,.11.57.13.79.47.71,1.05-.07.53-.46.71-.93.74-.27.02-.56-.02-.83-.06-.58-.08-1.05-.06-1.49.5-.54.68-1.38.32-2.08.22-.41-.06-.76-.41-1.17-.5-.94-.2-1.89-.34-2.85-.48-.74-.11-1.09-.4-1.05-.93.04-.51.48-.84,1.15-.87.06,0,.11-.02.22-.04Z"/>
      <path class="cls-1" d="M49.26,39.48c.15.76-.23,1.21-1.14,1.25-1.24.06-2.41-.09-3.43-.9-.19-.15-.54-.09-.78-.2-.26-.12-.56-.3-.66-.54-.06-.14.22-.44.37-.65.15-.2.39-.35.5-.56.41-.81,1.19-.95,1.94-1.08.5-.09,1.04-.08,1.55,0,.31.04.63.25.86.47.34.32.49.85,1.13.78.11-.01.43.44.37.58-.11.29-.4.5-.72.87Z"/>
      <path class="cls-1" d="M188.93,38.36c-.03-.46.17-.69.54-.88.4-.2.71-.47.9-.94.35-.87,1.92-1.06,2.69-.33.3.29.43.76.66,1.14.08.13.23.22.31.36.12.21.27.44.26.65,0,.16-.27.44-.4.43-.98-.11-1.61.58-2.37.96-.85.43-1.7.32-2.2-.37-.21-.29-.27-.68-.4-1.02Z"/>
      <path class="cls-2" d="M29.42,18.87c-.1.66-.13,1.39-.33,2.06-.27.93-.66,1.83-1.01,2.73-.63,1.63-1.28,3.25-1.89,4.89-.15.41-.11.9-.26,1.32-.64,1.77-1.3,3.54-1.98,5.3-.23.59-.82.74-1.32.3-.4-.36-.81-.79-1.01-1.28-.37-.93-.55-1.93-.88-2.88-.35-.99-.62-1.99-1.16-2.93-.49-.86-.74-1.88-.97-2.86-.53-2.21-.96-4.44-1.5-6.64-.2-.81-.65-1.56-.93-2.36-.26-.76-.49-1.54-.66-2.33-.08-.4-.02-.89.49-1.02.49-.13.8.09.96.62.69,2.27,1.65,4.49,2.07,6.8.44,2.48,1.36,4.79,1.97,7.21.09.34.48.59.64.92.66,1.33,1.3,2.67,1.94,4,.07,0,.14.02.2.03.42-1.44.84-2.88,1.27-4.31.22-.72.42-1.45.67-2.16.46-1.3,1.02-2.58,1.4-3.9.49-1.72.86-3.49,1.25-5.24.1-.42.07-.88.16-1.3.08-.37.22-.74.4-1.07.16-.28.68-.2.91.09.88,1.13,1.46,2.42,1.93,3.76.07.22.21.42.34.61.85,1.23.95,2.75,1.56,4.08.87,1.89,1.8,3.76,2.66,5.66.41.91.7,1.88,1.06,2.81.15.4.32.79.49,1.18.07,0,.13,0,.2,0,.48-1.87.9-3.76,1.44-5.61.84-2.88,1.74-5.75,2.63-8.62.53-1.69,1.05-3.39,1.63-5.07.11-.33.43-.6.68-.87.06-.06.28-.09.31-.05.09.13.21.32.18.45-.08.39-.24.75-.35,1.14-.68,2.45-1.34,4.91-2.02,7.36-.93,3.31-1.88,6.61-2.81,9.92-.19.67-.32,1.32-.26,2.06.06.78-.17,1.66-.99,2.15-.15.09-.46.16-.54.08-.47-.46-1.16-.64-1.41-1.38-.48-1.46-1.09-2.88-1.62-4.33-.45-1.24-.8-2.52-1.28-3.75-.43-1.09-1-2.11-1.47-3.19-.51-1.18-.91-2.4-1.46-3.56-.2-.42-.41-1.05-1.35-.83Z"/>
      <path class="cls-2" d="M149.9,31.58c.69-.5,1.12-1.59.97-2.3-.06-.27-.11-.58-.05-.85.37-1.61.72-3.22,1.17-4.81.44-1.55,1.02-3.06,1.48-4.6.28-.93.44-1.89.66-2.84.04-.19.1-.37.12-.45.64-.36,1.2-.68,1.75-.99.06.06.13.11.19.17-.15.62-.3,1.23-.45,1.85-.42,1.71-.84,3.42-1.24,5.14-.09.4-.03.84-.14,1.23-.42,1.49-1.01,2.94-1.28,4.45-.19,1.07-.52,2.08-.78,3.11-.36,1.41-.86,2.79-1.36,4.16-.25.68-.77.9-1.45.71-.25-.07-.45-.37-.63-.6-.12-.16-.14-.41-.26-.57-.77-1-.98-2.18-1.22-3.37-.14-.69-.48-1.35-.7-2.03-.6-1.83-1.19-3.67-1.79-5.5-.09-.27-.23-.53-.38-.78-.84-1.46-.96-3.13-1.43-4.7-.05-.15-.2-.34-.34-.38-.1-.03-.33.14-.38.27-.77,2.07-1.56,4.14-2.27,6.23-.47,1.38-.79,2.81-1.22,4.2-.22.7-.55,1.37-.83,2.05-.36.89-.74,1.77-1.05,2.67-.2.57-.33,1.15-.87,1.55-.17.12-.23.4-.34.61-.33.58-.65,1.15-.99,1.72-.04.07-.17.13-.24.12-.39-.06-.79-.13-1.17-.21-.09-.02-.21-.08-.25-.15-.25-.51-.53-1.01-.7-1.55-.42-1.33-.81-2.68-1.18-4.03-.19-.69-.26-1.42-.46-2.11-.42-1.43-.94-2.84-1.33-4.28-.28-1.03-.42-2.11-.64-3.16-.38-1.85-.73-3.7-.73-5.6,0-.53-.09-1.06-.1-1.59,0-.15.14-.29.22-.44.16.1.44.16.48.29.31,1.03.61,2.07.85,3.12.32,1.41.54,2.83.87,4.24.53,2.32,1.07,4.63,1.68,6.93.46,1.74,1.12,3.42,2.03,5,1.21-.53,1.67-1.59,2.05-2.7.39-1.12.71-2.26,1.13-3.36.44-1.14.99-2.25,1.44-3.39.16-.41.32-.79.15-1.34-.14-.45.25-1.06.43-1.6.1-.29.26-.56.36-.85.55-1.54,1.1-3.09,1.65-4.64.05-.15.11-.32.22-.42.27-.26.63-.74.84-.69.43.1.96.42,1.15.79.64,1.26,1.18,2.59,1.72,3.9.39.97.72,1.97,1.08,2.95.72,1.92,1.44,3.85,2.16,5.77.37.99.72,2,1.08,2.99.08.23.22.44.33.67Z"/>
      <path class="cls-2" d="M207.83,36.99c-1.25-.08-2.28-.3-3.27-.18-1.47.18-2.8-.29-4.13-.68-1.38-.4-2.68-1.07-4.01-1.64-.13-.06-.3-.19-.32-.31-.13-.69.46-1.01.81-1.44.26-.32.6-.2.96.03,2.45,1.61,5.13,2.56,8.07,2.54,2.4-.02,4.38-1.09,5.87-2.94,1.38-1.71.68-4.68-1.31-5.58-3.81-1.73-7.64-3.44-11.49-5.09-1.11-.48-2.13-1.01-2.41-2.24-.4-1.76-.02-3.41,1.3-4.69,1.5-1.46,3.28-2.51,5.33-3.01.53-.13,1.14.07,1.72.1.77.04,1.55.03,2.32.09,1.25.1,2.51.14,3.73.38.76.15,1.47.59,2.15,1,.23.14.29.56.42.85-.25.1-.49.28-.75.3-.93.06-1.85,0-2.76-.32-1.44-.49-2.95-.33-4.43-.41-1.7-.09-3.22.47-4.78.97-.99.31-1.74.99-2.23,1.81-.32.54-.24,1.32-.34,1.99,0,.02.03.03.03.05.11,1.77,1.62,1.99,2.82,2.41,1.37.48,2.82.69,4.22,1.1.74.21,1.46.54,2.14.9,1.64.87,3.26,1.76,4.86,2.7,2.05,1.21,3.16,5.15,1.69,7.56-1.02,1.67-2.33,2.71-4.12,3.27-.75.23-1.54.35-2.12.48Z"/>
      <path class="cls-2" d="M165.76,37.22c0-1.74,0-3.33,0-4.91,0-.26-.01-.52,0-.78.05-.7-.18-1.43.24-2.09.06-.1,0-.27.02-.41.08-1.47.16-2.94.24-4.41,0-.06.02-.12,0-.18-.37-1.35-.07-2.67.07-4.01.19-1.75.27-3.51.37-5.27.02-.37.21-.5.5-.64,1.35-.63,2.81-.69,4.26-.79,1.68-.11,3.39-.08,5.05-.34,2.14-.34,4.23.09,6.34.2.43.02.88.11.81.72-.07.61-.49.82-1.1.79-.98-.06-1.97-.02-2.95-.03-.29,0-.58-.1-.87-.09-1.11.02-2.22.09-3.33.11-.99.02-2-.11-2.96.05-1.06.18-2.09.57-3.1.96-.22.09-.39.53-.44.84-.35,1.97-.44,3.96-.39,5.95,0,.25-.02.51-.04.82.69,0,1.38-.02,2.06,0,1.89.07,3.79.15,5.68.25.69.04,1.4.1,2.07.27.27.07.45.47.67.72-.23.19-.42.47-.68.55-1.56.48-3.14.13-4.71.04-1.07-.06-2.15.03-3.22.06-.48.01-.96.09-1.43.02-.51-.07-.59.18-.62.58-.11,1.25-.25,2.5-.33,3.75-.1,1.64-.17,3.29-.23,4.93-.02.56.26.78.81.75,1.85-.08,3.69-.17,5.54-.23,1.18-.04,2.37-.01,3.56-.07,1.66-.09,3.31-.23,4.96-.35.14,0,.32-.06.41.01.23.18.41.42.62.63-.21.18-.39.47-.62.52-.4.09-.84,0-1.25.04-1.57.14-3.13.31-4.7.46-.59.06-1.18.09-1.77.13-1.98.15-3.95.33-5.93.43-1.2.06-2.41.01-3.57.01Z"/>
      <path class="cls-2" d="M226.1,14.9c-.78-.09-1.57-.2-2.35-.27-.33-.03-.67.03-1,.05-.15,0-.39.04-.42-.01-.07-.16-.14-.42-.07-.54.31-.5.59-1.05,1.31-1.08,1.55-.07,3.11-.24,4.66-.22,3.39.04,6.79.13,10.18.27.92.04,1.82.3,2.74.45.83.13,1.67.24,2.5.37.65.1.97.7.69,1.28-.36.75-1.05.93-2.2.75-1.31-.21-2.64-.36-3.96-.45-.49-.03-.99.21-1.49.33-.13.03-.26.1-.4.11-.7.06-.74.16-.7.86.06.97.02,1.95.05,2.92.02.81.09,1.63.11,2.44.01.47-.04.94-.03,1.41,0,.33.09.66.09.99-.03,1.81-.11,3.62-.1,5.43,0,1.16.19,2.33.21,3.49.02,1.03-.06,2.06-.11,3.09-.02.39-.34.53-.65.27-.24-.2-.43-.47-.65-.7-.27-.27-.58-.51-.84-.79-.15-.17-.33-.4-.33-.6,0-.97.07-1.94.1-2.91.01-.46-.04-.93-.01-1.39.07-1.11.23-2.23.23-3.34,0-2.72-.05-5.45-.09-8.17-.01-.9-.05-1.79-.06-2.69,0-.38-.17-.52-.54-.53-.56-.02-1.12-.05-1.67-.13-.28-.04-.52-.27-.8-.32-.58-.12-1.17-.19-1.76-.25-.87-.09-1.74-.15-2.62-.22,0,.04,0,.08-.01.13Z"/>
      <path class="cls-2" d="M70.6,33.68c2.17,0,4.28-.05,6.39.01,1.87.05,3.74.19,5.6.36.53.05,1.05.32,1.55.55.14.07.3.44.24.52-.19.27-.45.65-.72.69-3.26.38-6.53.48-9.8.5-1.41,0-2.82-.04-4.22-.13-.77-.05-1.05-.49-1.03-1.27.02-1.03.02-2.06-.01-3.09-.06-1.77-.21-3.54-.24-5.3-.06-3.17-.09-6.34-.06-9.51.01-1.03-.06-2.1.47-3.09.41-.76.79-1,1.55-.69.17.07.37.56.29.7-.53.87-.48,1.85-.53,2.77-.16,2.82-.37,5.66-.22,8.47.13,2.32.08,4.64.21,6.95.03.55.36,1.08.53,1.57Z"/>
      <path class="cls-2" d="M92.71,37.07c-.03-.15-.11-.33-.11-.52-.09-2.16-.2-4.33-.24-6.5-.04-2.1-.06-4.21.02-6.32.08-2.14.29-4.28.43-6.43.05-.69.15-1.39.11-2.08-.06-1.08.7-1.4,1.47-1.64.61-.2,1.28-.21,1.93-.29.73-.09,1.45-.18,2.18-.26,1.68-.18,3.33-.2,4.92.56,1.3.62,2.68,1.08,3.94,1.77.73.4,1.37,1.07,1.89,1.73.81,1.03,1.56,2.13,2.22,3.26.45.76.88,1.61,1,2.47.11.84-.05,1.79-.34,2.6-.54,1.51-1.24,2.96-1.91,4.41-.17.38-.52.68-.74,1.04-.73,1.25-1.97,1.92-3.07,2.76-1.45,1.1-3.14,1.63-4.84,2.17-.78.24-1.63.3-2.37.63-1.45.64-2.95.37-4.44.45-.66.04-1.32.11-2.05.17ZM110.74,24.48c-.03-.46-.09-.92-.1-1.38-.01-1.23-.71-2.18-1.29-3.17-.49-.83-1-1.67-1.65-2.36-1.04-1.1-2.39-1.75-3.82-2.28-1.05-.39-2.11-.24-3.16-.37-1.25-.15-2.52-.19-3.78-.17-.52,0-1.15.16-1.52.49-.39.35-.64.97-.76,1.51-.15.67-.1,1.38-.15,2.07,0,.11-.05.22-.08.33-.09.28-.25.56-.26.85-.06,2.38.08,4.77-.41,7.13-.05.23-.02.48-.02.72-.02,2.17.71,4.3.36,6.49-.06.37.15.54.53.52.99-.05,1.99-.12,2.98-.1,2.98.06,5.57-1.19,8.07-2.56,1.59-.87,2.84-2.19,3.73-3.78.67-1.22,1.57-2.39,1.33-3.93Z"/>
      <path class="cls-2" d="M55.88,31.81c0,1.25.03,2.5-.03,3.75-.01.26-.36.5-.55.75-.24-.25-.67-.49-.7-.77-.23-2.18-.36-4.36-.18-6.57.14-1.72-.06-3.46-.06-5.19,0-1.69.1-3.37.14-5.06.03-1.23.03-2.46.02-3.7,0-.68-.03-1.35-.06-2.02-.03-.65.54-.58.89-.65.39-.09.53.27.54.62.03,1.55.05,3.1.07,4.64.02,1.49.07,2.98.04,4.47-.03,1.55-.18,3.09-.21,4.64-.04,1.69,0,3.39,0,5.08.03,0,.07,0,.1,0Z"/>
      <path class="cls-2" d="M86.24,51.49c.02,1.59-.97,2.88-2.53,3.2-.29.06-.73-.09-.96-.29-.96-.83-1.58-1.86-1.74-3.15-.2-1.63,1.88-3.44,3.44-2.96.65.2,1.74,1.81,1.8,2.67.01.18,0,.36,0,.54Z"/>
      <path class="cls-2" d="M66.04,54.86c-.19-2.4-.38-4.71-.56-7.05,1.5.05,2.95.28,3.79,1.85.69,1.29.58,2.58-.23,3.71-.73,1.02-1.8,1.56-3,1.49Z"/>
      <path class="cls-2" d="M181.39,50.08c.38.9.69,1.65,1.01,2.4h-1.83c.27-.8.52-1.53.82-2.4Z"/>
      <path class="cls-1" d="M110.74,24.48c.24,1.54-.65,2.71-1.33,3.93-.88,1.6-2.14,2.92-3.73,3.78-2.51,1.37-5.09,2.61-8.07,2.56-.99-.02-1.99.06-2.98.1-.39.02-.59-.15-.53-.52.36-2.19-.37-4.32-.36-6.49,0-.24-.03-.49.02-.72.5-2.36.35-4.75.41-7.13,0-.29.17-.57.26-.85.03-.11.08-.22.08-.33.05-.69,0-1.4.15-2.07.12-.54.36-1.15.76-1.51.36-.33,1-.48,1.52-.49,1.26-.02,2.53.03,3.78.17,1.05.12,2.11-.02,3.16.37,1.43.53,2.78,1.18,3.82,2.28.65.69,1.16,1.53,1.65,2.36.58.99,1.28,1.94,1.29,3.17,0,.46.06.92.1,1.38ZM97.64,30.9c1.89.43,3.84.64,5.78-.14,1.35-.54,2.4-1.39,2.94-2.77.81-2.08.99-4.25.73-6.45-.29-2.42-2.88-4.64-4.66-4.76-1.4-.1-2.82-.02-4.22.03-.16,0-.42.36-.44.57-.08.83-.12,1.67-.12,2.5-.01,3.65,0,7.3,0,11.02Z"/>
      <path class="cls-2" d="M97.64,30.9c0-3.71,0-7.37,0-11.02,0-.83.04-1.67.12-2.5.02-.21.28-.56.44-.57,1.41-.05,2.82-.13,4.22-.03,1.78.12,4.37,2.34,4.66,4.76.26,2.21.08,4.37-.73,6.45-.53,1.38-1.58,2.23-2.94,2.77-1.94.77-3.89.56-5.78.14Z"/>
    </g>
  </g>
</svg>